999
dxfrw 0.6.3
  0
SECTION
  2
HEADER
  9
$ACADVER
  1
AC1021
  9
$DWGCODEPAGE
  3
ANSI_1252
  9
$INSBASE
 10
0
 20
0
 30
0
  9
$EXTMIN
 10
10000000000
 20
10000000000
 30
0
  9
$EXTMAX
 10
-10000000000
 20
-10000000000
 30
0
  9
$LIMMIN
 10
0
 20
0
  9
$LIMMAX
 10
12
 20
9
  9
$ORTHOMODE
 70
    0
  9
$REGENMODE
 70
    1
  9
$FILLMODE
 70
    1
  9
$QTEXTMODE
 70
    0
  9
$MIRRTEXT
 70
    1
  9
$LTSCALE
 40
1
  9
$ATTMODE
 70
    1
  9
$TEXTSIZE
 40
0.2
  9
$TRACEWID
 40
0.05
  9
$TEXTSTYLE
  7
STANDARD
  9
$CLAYER
  8
CASE_LAYER
  9
$CELTYPE
  6
BYLAYER
  9
$CECOLOR
 62
  256
  9
$CELTSCALE
 40
1
  9
$DISPSILH
 70
    0
  9
$DIMSCALE
 40
1
  9
$DIMASZ
 40
0.18
  9
$DIMEXO
 40
0.0625
  9
$DIMDLI
 40
0.38
  9
$DIMRND
 40
0
  9
$DIMDLE
 40
0
  9
$DIMEXE
 40
0.18
  9
$DIMTP
 40
0
  9
$DIMTM
 40
0
  9
$DIMTXT
 40
0.18
  9
$DIMCEN
 40
0.09
  9
$DIMTSZ
 40
0
  9
$DIMTOL
 70
    0
  9
$DIMLIM
 70
    0
  9
$DIMTIH
 70
    1
  9
$DIMTOH
 70
    1
  9
$DIMSE1
 70
    0
  9
$DIMSE2
 70
    0
  9
$DIMTAD
 70
    0
  9
$DIMZIN
 70
    0
  9
$DIMBLK
  1

  9
$DIMASO
 70
    1
  9
$DIMSHO
 70
    1
  9
$DIMPOST
  1

  9
$DIMAPOST
  1

  9
$DIMALT
 70
    0
  9
$DIMALTD
 70
    2
  9
$DIMALTF
 40
25.4
  9
$DIMLFAC
 40
1
  9
$DIMTOFL
 70
    0
  9
$DIMTVP
 40
0
  9
$DIMTIX
 70
    0
  9
$DIMSOXD
 70
    0
  9
$DIMSAH
 70
    0
  9
$DIMBLK1
  1

  9
$DIMBLK2
  1

  9
$DIMSTYLE
  2
STANDARD
  9
$DIMCLRD
 70
    0
  9
$DIMCLRE
 70
    0
  9
$DIMCLRT
 70
    0
  9
$DIMTFAC
 40
1
  9
$DIMGAP
 40
0.09
  9
$DIMJUST
 70
    0
  9
$DIMSD1
 70
    0
  9
$DIMSD2
 70
    0
  9
$DIMTOLJ
 70
    1
  9
$DIMTZIN
 70
    0
  9
$DIMALTZ
 70
    0
  9
$DIMALTTZ
 70
    0
  9
$DIMUPT
 70
    0
  9
$DIMDEC
 70
    4
  9
$DIMTDEC
 70
    4
  9
$DIMALTU
 70
    2
  9
$DIMALTTD
 70
    2
  9
$DIMTXSTY
  7
STANDARD
  9
$DIMAUNIT
 70
    0
  9
$DIMADEC
 70
    0
  9
$DIMALTRND
 40
0
  9
$DIMAZIN
 70
    0
  9
$DIMDSEP
 70
   44
  9
$DIMATFIT
 70
    3
  9
$DIMFRAC
 70
    0
  9
$DIMLDRBLK
  1
STANDARD
  9
$DIMLUNIT
 70
    2
  9
$DIMLWD
 70
   -2
  9
$DIMLWE
 70
   -2
  9
$DIMTMOVE
 70
    0
  9
$DIMFXL
 40
1
  9
$DIMFXLON
 70
    0
  9
$DIMJOGANG
 40
0.7854
  9
$DIMTFILL
 70
    0
  9
$DIMTFILLCLR
 70
    0
  9
$DIMARCSYM
 70
    0
  9
$DIMLTYPE
  6

  9
$DIMLTEX1
  6

  9
$DIMLTEX2
  6

  9
$LUNITS
 70
    2
  9
$LUPREC
 70
    4
  9
$SKETCHINC
 40
0.1
  9
$FILLETRAD
 40
0.5
  9
$AUNITS
 70
    0
  9
$AUPREC
 70
    0
  9
$MENU
  1
.
  9
$ELEVATION
 40
0
  9
$PELEVATION
 40
0
  9
$THICKNESS
 40
0
  9
$LIMCHECK
 70
    0
  9
$CHAMFERA
 40
0.5
  9
$CHAMFERB
 40
0.5
  9
$CHAMFERC
 40
1
  9
$CHAMFERD
 40
0
  9
$SKPOLY
 70
    0
  9
$USRTIMER
 70
    1
  9
$ANGBASE
 50
0
  9
$ANGDIR
 70
    0
  9
$PDMODE
 70
    0
  9
$PDSIZE
 40
0
  9
$PLINEWID
 40
0
  9
$SPLFRAME
 70
    0
  9
$SPLINETYPE
 70
    6
  9
$SPLINESEGS
 70
    8
  9
$HANDSEED
  5
20000
  9
$SURFTAB1
 70
    6
  9
$SURFTAB2
 70
    6
  9
$SURFTYPE
 70
    6
  9
$SURFU
 70
    6
  9
$SURFV
 70
    6
  9
$UCSBASE
  2

  9
$UCSNAME
  2

  9
$UCSORG
 10
0
 20
0
 30
0
  9
$UCSXDIR
 10
1
 20
0
 30
0
  9
$UCSYDIR
 10
0
 20
1
 30
0
  9
$UCSORTHOREF
  2

  9
$UCSORTHOVIEW
 70
    0
  9
$UCSORGTOP
 10
0
 20
0
 30
0
  9
$UCSORGBOTTOM
 10
0
 20
0
 30
0
  9
$UCSORGLEFT
 10
0
 20
0
 30
0
  9
$UCSORGRIGHT
 10
0
 20
0
 30
0
  9
$UCSORGFRONT
 10
0
 20
0
 30
0
  9
$UCSORGBACK
 10
0
 20
0
 30
0
  9
$PUCSBASE
  2

  9
$PUCSNAME
  2

  9
$PUCSORG
 10
0
 20
0
 30
0
  9
$PUCSXDIR
 10
1
 20
0
 30
0
  9
$PUCSYDIR
 10
0
 20
1
 30
0
  9
$PUCSORTHOREF
  2

  9
$PUCSORTHOVIEW
 70
    0
  9
$PUCSORGTOP
 10
0
 20
0
 30
0
  9
$PUCSORGBOTTOM
 10
0
 20
0
 30
0
  9
$PUCSORGLEFT
 10
0
 20
0
 30
0
  9
$PUCSORGRIGHT
 10
0
 20
0
 30
0
  9
$PUCSORGFRONT
 10
0
 20
0
 30
0
  9
$PUCSORGBACK
 10
0
 20
0
 30
0
  9
$USERI1
 70
    0
  9
$USERI2
 70
    0
  9
$USERI3
 70
    0
  9
$USERI4
 70
    0
  9
$USERI5
 70
    0
  9
$USERR1
 40
0
  9
$USERR2
 40
0
  9
$USERR3
 40
0
  9
$USERR4
 40
0
  9
$USERR5
 40
0
  9
$WORLDVIEW
 70
    1
  9
$SHADEDGE
 70
    3
  9
$SHADEDIF
 70
   70
  9
$TILEMODE
 70
    1
  9
$MAXACTVP
 70
   64
  9
$PINSBASE
 10
0
 20
0
 30
0
  9
$PLIMCHECK
 70
    0
  9
$PEXTMIN
 10
1e+020
 20
1e+020
 30
1e+020
  9
$PEXTMAX
 10
-1e+020
 20
-1e+020
 30
-1e+020
  9
$GRIDMODE
 70
    0
  9
$SNAPSTYLE
 70
    0
  9
$PLIMMIN
 10
0
 20
0
  9
$PLIMMAX
 10
12
 20
9
  9
$UNITMODE
 70
    0
  9
$VISRETAIN
 70
    1
  9
$PLINEGEN
 70
    0
  9
$PSLTSCALE
 70
    1
  9
$TREEDEPTH
 70
 3020
  9
$CMLSTYLE
  2
STANDARD
  9
$CMLJUST
 70
    0
  9
$CMLSCALE
 40
1
  9
$PROXYGRAPHICS
 70
    1
  9
$MEASUREMENT
 70
    1
  9
$CELWEIGHT
370
   -1
  9
$ENDCAPS
280
    0
  9
$JOINSTYLE
280
    0
  9
$LWDISPLAY
290
    0
  9
$INSUNITS
 70
    4
  9
$HYPERLINKBASE
  1

  9
$STYLESHEET
  1

  9
$XEDIT
290
    1
  9
$CEPSNTYPE
380
    0
  9
$PSTYLEMODE
290
    1
  9
$EXTNAMES
290
    1
  9
$PSVPSCALE
 40
1
  9
$OLESTARTUP
290
    0
  9
$SORTENTS
280
  127
  9
$INDEXCTL
280
    0
  9
$HIDETEXT
280
    1
  9
$XCLIPFRAME
290
    0
  9
$HALOGAP
280
    0
  9
$OBSCOLOR
 70
  257
  9
$OBSLTYPE
280
    0
  9
$INTERSECTIONDISPLAY
280
    0
  9
$INTERSECTIONCOLOR
 70
  257
  9
$DIMASSOC
280
    1
  9
$PROJECTNAME
  1

  9
$CAMERADISPLAY
290
    0
  9
$LENSLENGTH
 40
50
  9
$CAMERAHEIGHT
 40
0
  9
$STEPSPERSEC
 40
2
  9
$STEPSIZE
 40
50
  9
$3DDWFPREC
 40
2
  9
$PSOLWIDTH
 40
5
  9
$PSOLHEIGHT
 40
80
  9
$LOFTANG1
 40
1.570796326794897
  9
$LOFTANG2
 40
1.570796326794897
  9
$LOFTMAG1
 40
0
  9
$LOFTMAG2
 40
0
  9
$LOFTPARAM
 70
    7
  9
$LOFTNORMALS
280
    1
  9
$LATITUDE
 40
1
  9
$LONGITUDE
 40
1
  9
$NORTHDIRECTION
 40
0
  9
$TIMEZONE
 70
-8000
  9
$LIGHTGLYPHDISPLAY
280
    1
  9
$TILEMODELIGHTSYNCH
280
    1
  9
$SOLIDHIST
280
    1
  9
$SHOWHIST
280
    1
  9
$DWFFRAME
280
    2
  9
$DGNFRAME
280
    0
  9
$REALWORLDSCALE
290
    1
  9
$INTERFERECOLOR
 62
    1
  9
$CSHADOW
280
    0
  9
$SHADOWPLANELOCATION
 40
0
  0
ENDSEC
  0
SECTION
  2
CLASSES
  0
ENDSEC
  0
SECTION
  2
TABLES
  0
TABLE
  2
VPORT
  5
8
330
0
100
AcDbSymbolTable
 70
    1
  0
VPORT
  5
31
330
2
100
AcDbSymbolTableRecord
100
AcDbViewportTableRecord
  2
*ACTIVE
 70
    0
 10
0
 20
0
 11
1
 21
1
 12
315.9749091969503
 22
186.2973453068724
 13
0
 23
0
 14
10
 24
10
 15
10
 25
10
 16
0
 26
0
 36
1
 17
0
 27
0
 37
0
 40
560.7184804824494
 41
1.845276872964169
 42
50
 43
0
 44
0
 50
0
 51
0
 71
    0
 72
  100
 73
    1
 74
    3
 75
    0
 76
    0
 77
    0
 78
    0
281
    0
 65
    1
110
0
120
0
130
0
111
1
121
0
131
0
112
0
122
1
132
0
 79
    0
146
0
348
10020
 60
    7
 61
    5
292
1
282
    1
141
0
142
0
 63
  250
421
3358443
  0
ENDTAB
  0
TABLE
  2
LTYPE
  5
5
330
0
100
AcDbSymbolTable
 70
    4
  0
LTYPE
  5
14
330
5
100
AcDbSymbolTableRecord
100
AcDbLinetypeTableRecord
  2
ByBlock
 70
    0
  3

 72
   65
 73
    0
 40
0
  0
LTYPE
  5
15
330
5
100
AcDbSymbolTableRecord
100
AcDbLinetypeTableRecord
  2
ByLayer
 70
    0
  3

 72
   65
 73
    0
 40
0
  0
LTYPE
  5
16
330
5
100
AcDbSymbolTableRecord
100
AcDbLinetypeTableRecord
  2
Continuous
 70
    0
  3
Solid line
 72
   65
 73
    0
 40
0
  0
LTYPE
  5
32
330
5
100
AcDbSymbolTableRecord
100
AcDbLinetypeTableRecord
  2
DOT
 70
    0
  3
Dot . . . . . . . . . . . . . . . . . . . . . .
 72
   65
 73
    2
 40
6.35
 49
0
 74
    0
 49
-6.35
 74
    0
  0
LTYPE
  5
33
330
5
100
AcDbSymbolTableRecord
100
AcDbLinetypeTableRecord
  2
DOTTINY
 70
    0
  3
Dot (.15x) .....................................
 72
   65
 73
    2
 40
0.9525
 49
0
 74
    0
 49
-0.9525
 74
    0
  0
LTYPE
  5
34
330
5
100
AcDbSymbolTableRecord
100
AcDbLinetypeTableRecord
  2
DOT2
 70
    0
  3
Dot (.5x) .....................................
 72
   65
 73
    2
 40
3.175
 49
0
 74
    0
 49
-3.175
 74
    0
  0
LTYPE
  5
35
330
5
100
AcDbSymbolTableRecord
100
AcDbLinetypeTableRecord
  2
DOTX2
 70
    0
  3
Dot (2x) .  .  .  .  .  .  .  .  .  .  .  .  .
 72
   65
 73
    2
 40
12.7
 49
0
 74
    0
 49
-12.7
 74
    0
  0
LTYPE
  5
36
330
5
100
AcDbSymbolTableRecord
100
AcDbLinetypeTableRecord
  2
DASHED
 70
    0
  3
Dashed _ _ _ _ _ _ _ _ _ _ _ _ _ _ _ _ _
 72
   65
 73
    2
 40
19.05
 49
12.7
 74
    0
 49
-6.35
 74
    0
  0
LTYPE
  5
37
330
5
100
AcDbSymbolTableRecord
100
AcDbLinetypeTableRecord
  2
DASHEDTINY
 70
    0
  3
Dashed (.15x) _ _ _ _ _ _ _ _ _ _ _ _ _ _ _ _ _
 72
   65
 73
    2
 40
2.8575
 49
1.905
 74
    0
 49
-0.9525
 74
    0
  0
LTYPE
  5
38
330
5
100
AcDbSymbolTableRecord
100
AcDbLinetypeTableRecord
  2
DASHED2
 70
    0
  3
Dashed (.5x) _ _ _ _ _ _ _ _ _ _ _ _ _ _ _ _ _
 72
   65
 73
    2
 40
9.524999999999999
 49
6.35
 74
    0
 49
-3.175
 74
    0
  0
LTYPE
  5
39
330
5
100
AcDbSymbolTableRecord
100
AcDbLinetypeTableRecord
  2
DASHEDX2
 70
    0
  3
Dashed (2x) ____  ____  ____  ____  ____  ___
 72
   65
 73
    2
 40
38.09999999999999
 49
25.4
 74
    0
 49
-12.7
 74
    0
  0
LTYPE
  5
3A
330
5
100
AcDbSymbolTableRecord
100
AcDbLinetypeTableRecord
  2
DASHDOT
 70
    0
  3
Dash dot __ . __ . __ . __ . __ . __ . __ . __
 72
   65
 73
    4
 40
25.4
 49
12.7
 74
    0
 49
-6.35
 74
    0
 49
0
 74
    0
 49
-6.35
 74
    0
  0
LTYPE
  5
3B
330
5
100
AcDbSymbolTableRecord
100
AcDbLinetypeTableRecord
  2
DASHDOTTINY
 70
    0
  3
Dash dot (.15x) _._._._._._._._._._._._._._._.
 72
   65
 73
    4
 40
3.81
 49
1.905
 74
    0
 49
-0.9525
 74
    0
 49
0
 74
    0
 49
-0.9525
 74
    0
  0
LTYPE
  5
3C
330
5
100
AcDbSymbolTableRecord
100
AcDbLinetypeTableRecord
  2
DASHDOT2
 70
    0
  3
Dash dot (.5x) _._._._._._._._._._._._._._._.
 72
   65
 73
    4
 40
12.7
 49
6.35
 74
    0
 49
-3.175
 74
    0
 49
0
 74
    0
 49
-3.175
 74
    0
  0
LTYPE
  5
3D
330
5
100
AcDbSymbolTableRecord
100
AcDbLinetypeTableRecord
  2
DASHDOTX2
 70
    0
  3
Dash dot (2x) ____  .  ____  .  ____  .  ___
 72
   65
 73
    4
 40
50.8
 49
25.4
 74
    0
 49
-12.7
 74
    0
 49
0
 74
    0
 49
-12.7
 74
    0
  0
LTYPE
  5
3E
330
5
100
AcDbSymbolTableRecord
100
AcDbLinetypeTableRecord
  2
DIVIDE
 70
    0
  3
Divide ____ . . ____ . . ____ . . ____ . . ____
 72
   65
 73
    6
 40
31.75
 49
12.7
 74
    0
 49
-6.35
 74
    0
 49
0
 74
    0
 49
-6.35
 74
    0
 49
0
 74
    0
 49
-6.35
 74
    0
  0
LTYPE
  5
3F
330
5
100
AcDbSymbolTableRecord
100
AcDbLinetypeTableRecord
  2
DIVIDETINY
 70
    0
  3
Divide (.15x) __..__..__..__..__..__..__..__.._
 72
   65
 73
    6
 40
4.7625
 49
1.905
 74
    0
 49
-0.9525
 74
    0
 49
0
 74
    0
 49
-0.9525
 74
    0
 49
0
 74
    0
 49
-0.9525
 74
    0
  0
LTYPE
  5
40
330
5
100
AcDbSymbolTableRecord
100
AcDbLinetypeTableRecord
  2
DIVIDE2
 70
    0
  3
Divide (.5x) __..__..__..__..__..__..__..__.._
 72
   65
 73
    6
 40
15.875
 49
6.35
 74
    0
 49
-3.175
 74
    0
 49
0
 74
    0
 49
-3.175
 74
    0
 49
0
 74
    0
 49
-3.175
 74
    0
  0
LTYPE
  5
41
330
5
100
AcDbSymbolTableRecord
100
AcDbLinetypeTableRecord
  2
DIVIDEX2
 70
    0
  3
Divide (2x) ________  .  .  ________  .  .  _
 72
   65
 73
    6
 40
63.5
 49
25.4
 74
    0
 49
-12.7
 74
    0
 49
0
 74
    0
 49
-12.7
 74
    0
 49
0
 74
    0
 49
-12.7
 74
    0
  0
LTYPE
  5
42
330
5
100
AcDbSymbolTableRecord
100
AcDbLinetypeTableRecord
  2
BORDER
 70
    0
  3
Border __ __ . __ __ . __ __ . __ __ . __ __ .
 72
   65
 73
    6
 40
44.45
 49
12.7
 74
    0
 49
-6.35
 74
    0
 49
12.7
 74
    0
 49
-6.35
 74
    0
 49
0
 74
    0
 49
-6.35
 74
    0
  0
LTYPE
  5
43
330
5
100
AcDbSymbolTableRecord
100
AcDbLinetypeTableRecord
  2
BORDERTINY
 70
    0
  3
Border (.15x) __.__.__.__.__.__.__.__.__.__.__.
 72
   65
 73
    6
 40
6.6675
 49
1.905
 74
    0
 49
-0.9525
 74
    0
 49
1.905
 74
    0
 49
-0.9525
 74
    0
 49
0
 74
    0
 49
-0.9525
 74
    0
  0
LTYPE
  5
44
330
5
100
AcDbSymbolTableRecord
100
AcDbLinetypeTableRecord
  2
BORDER2
 70
    0
  3
Border (.5x) __.__.__.__.__.__.__.__.__.__.__.
 72
   65
 73
    6
 40
22.225
 49
6.35
 74
    0
 49
-3.175
 74
    0
 49
6.35
 74
    0
 49
-3.175
 74
    0
 49
0
 74
    0
 49
-3.175
 74
    0
  0
LTYPE
  5
45
330
5
100
AcDbSymbolTableRecord
100
AcDbLinetypeTableRecord
  2
BORDERX2
 70
    0
  3
Border (2x) ____  ____  .  ____  ____  .  ___
 72
   65
 73
    6
 40
88.89999999999999
 49
25.4
 74
    0
 49
-12.7
 74
    0
 49
25.4
 74
    0
 49
-12.7
 74
    0
 49
0
 74
    0
 49
-12.7
 74
    0
  0
LTYPE
  5
46
330
5
100
AcDbSymbolTableRecord
100
AcDbLinetypeTableRecord
  2
CENTER
 70
    0
  3
Center ____ _ ____ _ ____ _ ____ _ ____ _ ____
 72
   65
 73
    4
 40
50.8
 49
31.75
 74
    0
 49
-6.35
 74
    0
 49
6.35
 74
    0
 49
-6.35
 74
    0
  0
LTYPE
  5
47
330
5
100
AcDbSymbolTableRecord
100
AcDbLinetypeTableRecord
  2
CENTERTINY
 70
    0
  3
Center (.15x) ___ _ ___ _ ___ _ ___ _ ___ _ ___
 72
   65
 73
    4
 40
7.62
 49
4.7625
 74
    0
 49
-0.9525
 74
    0
 49
0.9525
 74
    0
 49
-0.9525
 74
    0
  0
LTYPE
  5
48
330
5
100
AcDbSymbolTableRecord
100
AcDbLinetypeTableRecord
  2
CENTER2
 70
    0
  3
Center (.5x) ___ _ ___ _ ___ _ ___ _ ___ _ ___
 72
   65
 73
    4
 40
28.575
 49
19.05
 74
    0
 49
-3.175
 74
    0
 49
3.175
 74
    0
 49
-3.175
 74
    0
  0
LTYPE
  5
49
330
5
100
AcDbSymbolTableRecord
100
AcDbLinetypeTableRecord
  2
CENTERX2
 70
    0
  3
Center (2x) ________  __  ________  __  _____
 72
   65
 73
    4
 40
101.6
 49
63.5
 74
    0
 49
-12.7
 74
    0
 49
12.7
 74
    0
 49
-12.7
 74
    0
  0
ENDTAB
  0
TABLE
  2
LAYER
  5
2
330
0
100
AcDbSymbolTable
 70
    1
  0
LAYER
  5
10
330
2
100
AcDbSymbolTableRecord
100
AcDbLayerTableRecord
  2
0
 70
    0
 62
    7
  6
CONTINUOUS
370
   -3
390
F
  0
LAYER
  5
4A
330
2
100
AcDbSymbolTableRecord
100
AcDbLayerTableRecord
  2
CASE_LAYER
 70
    0
 62
    1
  6
CONTINUOUS
370
   -3
390
F
  0
ENDTAB
  0
TABLE
  2
STYLE
  5
3
330
0
100
AcDbSymbolTable
 70
    3
  0
STYLE
  5
4B
330
2
100
AcDbSymbolTableRecord
100
AcDbTextStyleTableRecord
  2
Standard
 70
    0
 40
0
 41
1
 50
0
 71
    0
 42
1
  3
txt
  4

  0
ENDTAB
  0
TABLE
  2
VIEW
  5
6
330
0
100
AcDbSymbolTable
 70
    0
  0
ENDTAB
  0
TABLE
  2
UCS
  5
7
330
0
100
AcDbSymbolTable
 70
    0
  0
ENDTAB
  0
TABLE
  2
APPID
  5
9
330
0
100
AcDbSymbolTable
 70
    1
  0
APPID
  5
12
330
9
100
AcDbSymbolTableRecord
100
AcDbRegAppTableRecord
  2
ACAD
 70
    0
  0
APPID
  5
4C
330
9
100
AcDbSymbolTableRecord
100
AcDbRegAppTableRecord
  2
LibreCad
 70
    0
  0
ENDTAB
  0
TABLE
  2
DIMSTYLE
  5
A
330
0
100
AcDbSymbolTable
 70
    1
100
AcDbDimStyleTable
 71
    1
  0
DIMSTYLE
105
4D
330
A
100
AcDbSymbolTableRecord
100
AcDbDimStyleTableRecord
  2
Standard
 70
    0
 40
1
 41
0.18
 42
0.0625
 43
0.38
 44
0.18
 45
0
 46
0
 47
0
 48
0
 49
1
140
0.18
141
0.09
142
0
143
25.4
144
1
145
0
146
1
147
0.09
148
0
 71
    0
 72
    0
 73
    1
 74
    1
 75
    0
 76
    0
 77
    0
 78
    0
 79
    0
170
    0
171
    2
172
    0
173
    0
174
    0
175
    0
176
    0
177
    0
178
    0
179
    0
271
    4
272
    4
273
    2
274
    2
275
    0
276
    0
277
    2
278
   44
279
    0
280
    0
281
    0
282
    0
283
    1
284
    0
285
    0
286
    0
288
    0
289
    3
340
STANDARD
341

371
   -2
372
   -2
  0
ENDTAB
  0
TABLE
  2
BLOCK_RECORD
  5
1
330
0
100
AcDbSymbolTable
 70
    2
  0
BLOCK_RECORD
  5
1F
330
1
100
AcDbSymbolTableRecord
100
AcDbBlockTableRecord
  2
*Model_Space
 70
    0
280
    1
281
    0
  0
BLOCK_RECORD
  5
1E
330
1
100
AcDbSymbolTableRecord
100
AcDbBlockTableRecord
  2
*Paper_Space
 70
    0
280
    1
281
    0
  0
ENDTAB
  0
ENDSEC
  0
SECTION
  2
BLOCKS
  0
BLOCK
  5
20
330
1F
100
AcDbEntity
  8
0
100
AcDbBlockBegin
  2
*Model_Space
 70
    0
 10
0
 20
0
 30
0
  3
*Model_Space
  1

  0
ENDBLK
  5
21
330
1F
100
AcDbEntity
  8
0
100
AcDbBlockEnd
  0
BLOCK
  5
1C
330
1B
100
AcDbEntity
  8
0
100
AcDbBlockBegin
  2
*Paper_Space
 70
    0
 10
0
 20
0
 30
0
  3
*Paper_Space
  1

  0
ENDBLK
  5
1D
330
1F
100
AcDbEntity
  8
0
100
AcDbBlockEnd
  0
ENDSEC
  0
SECTION
  2
ENTITIES
  0
SPLINE
  5
4E
100
AcDbEntity
  8
CASE_LAYER
  6
ByLayer
 62
  256
370
   -1
100
AcDbSpline
210
0
220
0
230
0
 70
   11
 71
    3
 72
   29
 73
   25
 74
    0
 42
1e-007
 43
1e-007
 40
0
 40
0
 40
0
 40
0
 40
1
 40
1
 40
1
 40
2
 40
2
 40
2
 40
3
 40
3
 40
3
 40
4
 40
4
 40
4
 40
5
 40
5
 40
5
 40
6
 40
6
 40
6
 40
7
 40
7
 40
7
 40
8
 40
8
 40
8
 40
8
 10
272.6483243687397
 20
260.2006046061927
 30
0
 10
272.6483243687397
 20
260.2006046061927
 30
0
 10
-82.43912427579993
 20
260.2006046061927
 30
0
 10
-82.43912427579993
 20
260.2006046061927
 30
0
 10
-83.54369377518495
 20
260.2006046061927
 30
0
 10
-84.4391242752998
 20
261.0960351063062
 30
0
 10
-84.4391242752998
 20
262.2006046056921
 30
0
 10
-84.4391242752998
 20
262.2006046056921
 30
0
 10
-84.4391242752998
 20
283.2006046004432
 30
0
 10
-84.4391242752998
 20
283.2006046004432
 30
0
 10
-84.4391242752998
 20
284.3051740998279
 30
0
 10
-83.54369377518495
 20
285.2006045999427
 30
0
 10
-82.43912427579993
 20
285.2006045999427
 30
0
 10
-82.43912427579993
 20
285.2006045999427
 30
0
 10
272.6483243687397
 20
285.2006045999427
 30
0
 10
272.6483243687397
 20
285.2006045999427
 30
0
 10
273.7528938681257
 20
285.2006045999427
 30
0
 10
274.6483243682405
 20
284.3051740998279
 30
0
 10
274.6483243682405
 20
283.2006046004419
 30
0
 10
274.6483243682405
 20
283.2006046004419
 30
0
 10
274.6483243682405
 20
262.2006046056921
 30
0
 10
274.6483243682405
 20
262.2006046056921
 30
0
 10
274.6483243682405
 20
261.0960351063078
 30
0
 10
273.7528938681257
 20
260.2006046061927
 30
0
 10
272.6483243687397
 20
260.2006046061927
 30
0
  0
SPLINE
  5
4F
100
AcDbEntity
  8
CASE_LAYER
  6
ByLayer
 62
  256
370
   -1
100
AcDbSpline
210
0
220
0
230
0
 70
   11
 71
    3
 72
   29
 73
   25
 74
    0
 42
1e-007
 43
1e-007
 40
0
 40
0
 40
0
 40
0
 40
1
 40
1
 40
1
 40
2
 40
2
 40
2
 40
3
 40
3
 40
3
 40
4
 40
4
 40
4
 40
5
 40
5
 40
5
 40
6
 40
6
 40
6
 40
7
 40
7
 40
7
 40
8
 40
8
 40
8
 40
8
 10
269.6483257222709
 20
278.8506046005061
 30
0
 10
269.6483257222709
 20
278.8506046005061
 30
0
 10
269.648323015936
 20
278.8506046005061
 30
0
 10
269.648323015936
 20
278.8506046005061
 30
0
 10
268.9058237629736
 20
278.8506046005151
 30
0
 10
268.2983243744919
 20
279.4581039956602
 30
0
 10
268.2983243748654
 20
280.2006032486225
 30
0
 10
268.2983243748654
 20
280.2006032486225
 30
0
 10
268.2983243748654
 20
280.2006059486226
 30
0
 10
268.2983243748654
 20
280.2006059486226
 30
0
 10
268.2983243752388
 20
280.9431052076156
 30
0
 10
268.9058237640517
 20
281.5506046015813
 30
0
 10
269.6483230230448
 20
281.5506046018804
 30
0
 10
269.6483230230448
 20
281.5506046018804
 30
0
 10
269.6483257559755
 20
281.5506046018804
 30
0
 10
269.6483257559755
 20
281.5506046018804
 30
0
 10
270.3908249914503
 20
281.5506046021794
 30
0
 10
270.9983243651126
 20
280.943105222171
 30
0
 10
270.9983243641154
 20
280.2006059866959
 30
0
 10
270.9983243641154
 20
280.2006059866959
 30
0
 10
270.9983243641154
 20
280.2006032474303
 30
0
 10
270.9983243641154
 20
280.2006032474303
 30
0
 10
270.9983243631169
 20
279.4581039916123
 30
0
 10
270.3908249780889
 20
278.8506046004971
 30
0
 10
269.6483257222709
 20
278.8506046005061
 30
0
  0
SPLINE
  5
50
100
AcDbEntity
  8
CASE_LAYER
  6
ByLayer
 62
  256
370
   -1
100
AcDbSpline
210
0
220
0
230
0
 70
   11
 71
    3
 72
   29
 73
   25
 74
    0
 42
1e-007
 43
1e-007
 40
0
 40
0
 40
0
 40
0
 40
1
 40
1
 40
1
 40
2
 40
2
 40
2
 40
3
 40
3
 40
3
 40
4
 40
4
 40
4
 40
5
 40
5
 40
5
 40
6
 40
6
 40
6
 40
7
 40
7
 40
7
 40
8
 40
8
 40
8
 40
8
 10
140.658230769208
 20
278.8506244496062
 30
0
 10
140.658230769208
 20
278.8506244496062
 30
0
 10
140.6582280628731
 20
278.8506244496062
 30
0
 10
140.6582280628731
 20
278.8506244496062
 30
0
 10
139.9157288099107
 20
278.8506244496168
 30
0
 10
139.308229421429
 20
279.4581238447603
 30
0
 10
139.3082294218025
 20
280.2006230977227
 30
0
 10
139.3082294218025
 20
280.2006230977227
 30
0
 10
139.3082294218025
 20
280.2006257977228
 30
0
 10
139.3082294218025
 20
280.2006257977228
 30
0
 10
139.3082294221759
 20
280.9431250567158
 30
0
 10
139.9157288109888
 20
281.5506244506827
 30
0
 10
140.6582280699818
 20
281.5506244509818
 30
0
 10
140.6582280699818
 20
281.5506244509818
 30
0
 10
140.6582308029126
 20
281.5506244509818
 30
0
 10
140.6582308029126
 20
281.5506244509818
 30
0
 10
141.4007300383874
 20
281.5506244512808
 30
0
 10
142.0082294120497
 20
280.9431250712708
 30
0
 10
142.0082294110525
 20
280.2006258357973
 30
0
 10
142.0082294110525
 20
280.2006258357973
 30
0
 10
142.0082294110525
 20
280.2006230965304
 30
0
 10
142.0082294110525
 20
280.2006230965304
 30
0
 10
142.008229410054
 20
279.4581238407138
 30
0
 10
141.4007300250259
 20
278.8506244495972
 30
0
 10
140.658230769208
 20
278.8506244496062
 30
0
  0
SPLINE
  5
51
100
AcDbEntity
  8
CASE_LAYER
  6
ByLayer
 62
  256
370
   -1
100
AcDbSpline
210
0
220
0
230
0
 70
   11
 71
    3
 72
   29
 73
   25
 74
    0
 42
1e-007
 43
1e-007
 40
0
 40
0
 40
0
 40
0
 40
1
 40
1
 40
1
 40
2
 40
2
 40
2
 40
3
 40
3
 40
3
 40
4
 40
4
 40
4
 40
5
 40
5
 40
5
 40
6
 40
6
 40
6
 40
7
 40
7
 40
7
 40
8
 40
8
 40
8
 40
8
 10
8.095877044495941
 20
278.8506244496062
 30
0
 10
8.095877044495941
 20
278.8506244496062
 30
0
 10
8.095874338161044
 20
278.8506244496062
 30
0
 10
8.095874338161044
 20
278.8506244496062
 30
0
 10
7.353375085198667
 20
278.8506244496168
 30
0
 10
6.745875696716952
 20
279.4581238447603
 30
0
 10
6.745875697090741
 20
280.2006230977227
 30
0
 10
6.745875697090741
 20
280.2006230977227
 30
0
 10
6.745875697090741
 20
280.2006257977228
 30
0
 10
6.745875697090741
 20
280.2006257977228
 30
0
 10
6.745875697463889
 20
280.9431250567158
 30
0
 10
7.353375086276722
 20
281.5506244506827
 30
0
 10
8.095874345269786
 20
281.5506244509818
 30
0
 10
8.095874345269786
 20
281.5506244509818
 30
0
 10
8.095877078200541
 20
281.5506244509818
 30
0
 10
8.095877078200541
 20
281.5506244509818
 30
0
 10
8.838376313675335
 20
281.5506244512808
 30
0
 10
9.445875687337653
 20
280.9431250712708
 30
0
 10
9.445875686340452
 20
280.2006258357973
 30
0
 10
9.445875686340452
 20
280.2006258357973
 30
0
 10
9.445875686340452
 20
280.2006230965304
 30
0
 10
9.445875686340452
 20
280.2006230965304
 30
0
 10
9.445875685341969
 20
279.4581238407138
 30
0
 10
8.838376300313877
 20
278.8506244495972
 30
0
 10
8.095877044495941
 20
278.8506244496062
 30
0
  0
SPLINE
  5
52
100
AcDbEntity
  8
CASE_LAYER
  6
ByLayer
 62
  256
370
   -1
100
AcDbSpline
210
0
220
0
230
0
 70
   11
 71
    3
 72
   29
 73
   25
 74
    0
 42
1e-007
 43
1e-007
 40
0
 40
0
 40
0
 40
0
 40
1
 40
1
 40
1
 40
2
 40
2
 40
2
 40
3
 40
3
 40
3
 40
4
 40
4
 40
4
 40
5
 40
5
 40
5
 40
6
 40
6
 40
6
 40
7
 40
7
 40
7
 40
8
 40
8
 40
8
 40
8
 10
-79.43912292376754
 20
278.8506244496062
 30
0
 10
-79.43912292376754
 20
278.8506244496062
 30
0
 10
-79.43912563010244
 20
278.8506244496062
 30
0
 10
-79.43912563010244
 20
278.8506244496062
 30
0
 10
-80.18162488306481
 20
278.8506244496168
 30
0
 10
-80.78912427154653
 20
279.4581238447603
 30
0
 10
-80.78912427117307
 20
280.2006230977227
 30
0
 10
-80.78912427117307
 20
280.2006230977227
 30
0
 10
-80.78912427117307
 20
280.2006257977228
 30
0
 10
-80.78912427117307
 20
280.2006257977228
 30
0
 10
-80.78912427079959
 20
280.9431250567158
 30
0
 10
-80.18162488198676
 20
281.5506244506827
 30
0
 10
-79.4391256229937
 20
281.5506244509818
 30
0
 10
-79.4391256229937
 20
281.5506244509818
 30
0
 10
-79.43912289006295
 20
281.5506244509818
 30
0
 10
-79.43912289006295
 20
281.5506244509818
 30
0
 10
-78.69662365458815
 20
281.5506244512808
 30
0
 10
-78.08912428092583
 20
280.9431250712708
 30
0
 10
-78.08912428192303
 20
280.2006258357973
 30
0
 10
-78.08912428192303
 20
280.2006258357973
 30
0
 10
-78.08912428192303
 20
280.2006230965304
 30
0
 10
-78.08912428192303
 20
280.2006230965304
 30
0
 10
-78.08912428292152
 20
279.4581238407138
 30
0
 10
-78.69662366794961
 20
278.8506244495972
 30
0
 10
-79.43912292376754
 20
278.8506244496062
 30
0
  0
SPLINE
  5
53
100
AcDbEntity
  8
CASE_LAYER
  6
ByLayer
 62
  256
370
   -1
100
AcDbSpline
210
0
220
0
230
0
 70
   11
 71
    3
 72
   29
 73
   25
 74
    0
 42
1e-007
 43
1e-007
 40
0
 40
0
 40
0
 40
0
 40
1
 40
1
 40
1
 40
2
 40
2
 40
2
 40
3
 40
3
 40
3
 40
4
 40
4
 40
4
 40
5
 40
5
 40
5
 40
6
 40
6
 40
6
 40
7
 40
7
 40
7
 40
8
 40
8
 40
8
 40
8
 10
272.6483243687423
 20
242.950119148032
 30
0
 10
272.6483243687423
 20
242.950119148032
 30
0
 10
-82.43912427579833
 20
242.950119148032
 30
0
 10
-82.43912427579833
 20
242.950119148032
 30
0
 10
-83.54369377518334
 20
242.950119148032
 30
0
 10
-84.43912427529787
 20
243.8455496481455
 30
0
 10
-84.43912427529787
 20
244.9501191475315
 30
0
 10
-84.43912427529787
 20
244.9501191475315
 30
0
 10
-84.43912427529787
 20
255.9501191447822
 30
0
 10
-84.43912427529787
 20
255.9501191447822
 30
0
 10
-84.43912427529787
 20
257.054688644167
 30
0
 10
-83.54369377518334
 20
257.9501191442821
 30
0
 10
-82.43912427579833
 20
257.9501191442821
 30
0
 10
-82.43912427579833
 20
257.9501191442821
 30
0
 10
272.6483243687423
 20
257.9501191442821
 30
0
 10
272.6483243687423
 20
257.9501191442821
 30
0
 10
273.752893868127
 20
257.9501191442821
 30
0
 10
274.6483243682418
 20
257.054688644167
 30
0
 10
274.6483243682418
 20
255.950119144781
 30
0
 10
274.6483243682418
 20
255.950119144781
 30
0
 10
274.6483243682418
 20
244.9501191475315
 30
0
 10
274.6483243682418
 20
244.9501191475315
 30
0
 10
274.6483243682418
 20
243.8455496481468
 30
0
 10
273.752893868127
 20
242.950119148032
 30
0
 10
272.6483243687423
 20
242.950119148032
 30
0
  0
SPLINE
  5
54
100
AcDbEntity
  8
CASE_LAYER
  6
ByLayer
 62
  256
370
   -1
100
AcDbSpline
210
0
220
0
230
0
 70
   11
 71
    3
 72
   29
 73
   25
 74
    0
 42
1e-007
 43
1e-007
 40
0
 40
0
 40
0
 40
0
 40
1
 40
1
 40
1
 40
2
 40
2
 40
2
 40
3
 40
3
 40
3
 40
4
 40
4
 40
4
 40
5
 40
5
 40
5
 40
6
 40
6
 40
6
 40
7
 40
7
 40
7
 40
8
 40
8
 40
8
 40
8
 10
-79.43912292376754
 20
251.6001191448451
 30
0
 10
-79.43912292376754
 20
251.6001191448451
 30
0
 10
-79.43912563010244
 20
251.6001191448451
 30
0
 10
-79.43912563010244
 20
251.6001191448451
 30
0
 10
-80.18162488306481
 20
251.6001191448541
 30
0
 10
-80.78912427154653
 20
252.2076185399992
 30
0
 10
-80.78912427117307
 20
252.9501177929616
 30
0
 10
-80.78912427117307
 20
252.9501177929616
 30
0
 10
-80.78912427117307
 20
252.9501204929616
 30
0
 10
-80.78912427117307
 20
252.9501204929616
 30
0
 10
-80.78912427079959
 20
253.6926197519547
 30
0
 10
-80.18162488198676
 20
254.3001191459204
 30
0
 10
-79.4391256229937
 20
254.3001191462194
 30
0
 10
-79.4391256229937
 20
254.3001191462194
 30
0
 10
-79.43912289006295
 20
254.3001191462194
 30
0
 10
-79.43912289006295
 20
254.3001191462194
 30
0
 10
-78.69662365458815
 20
254.3001191465185
 30
0
 10
-78.08912428092583
 20
253.6926197665098
 30
0
 10
-78.08912428192303
 20
252.9501205310349
 30
0
 10
-78.08912428192303
 20
252.9501205310349
 30
0
 10
-78.08912428192303
 20
252.9501177917693
 30
0
 10
-78.08912428192303
 20
252.9501177917693
 30
0
 10
-78.08912428292152
 20
252.2076185359514
 30
0
 10
-78.69662366794961
 20
251.6001191448362
 30
0
 10
-79.43912292376754
 20
251.6001191448451
 30
0
  0
SPLINE
  5
55
100
AcDbEntity
  8
CASE_LAYER
  6
ByLayer
 62
  256
370
   -1
100
AcDbSpline
210
0
220
0
230
0
 70
   11
 71
    3
 72
   29
 73
   25
 74
    0
 42
1e-007
 43
1e-007
 40
0
 40
0
 40
0
 40
0
 40
1
 40
1
 40
1
 40
2
 40
2
 40
2
 40
3
 40
3
 40
3
 40
4
 40
4
 40
4
 40
5
 40
5
 40
5
 40
6
 40
6
 40
6
 40
7
 40
7
 40
7
 40
8
 40
8
 40
8
 40
8
 10
8.095877044495941
 20
251.6001191448451
 30
0
 10
8.095877044495941
 20
251.6001191448451
 30
0
 10
8.095874338161044
 20
251.6001191448451
 30
0
 10
8.095874338161044
 20
251.6001191448451
 30
0
 10
7.353375085198667
 20
251.6001191448541
 30
0
 10
6.745875696716952
 20
252.2076185399992
 30
0
 10
6.745875697090741
 20
252.9501177929616
 30
0
 10
6.745875697090741
 20
252.9501177929616
 30
0
 10
6.745875697090741
 20
252.9501204929616
 30
0
 10
6.745875697090741
 20
252.9501204929616
 30
0
 10
6.745875697463889
 20
253.6926197519547
 30
0
 10
7.353375086276722
 20
254.3001191459204
 30
0
 10
8.095874345269786
 20
254.3001191462194
 30
0
 10
8.095874345269786
 20
254.3001191462194
 30
0
 10
8.095877078200541
 20
254.3001191462194
 30
0
 10
8.095877078200541
 20
254.3001191462194
 30
0
 10
8.838376313675335
 20
254.3001191465185
 30
0
 10
9.445875687337653
 20
253.6926197665098
 30
0
 10
9.445875686340452
 20
252.9501205310349
 30
0
 10
9.445875686340452
 20
252.9501205310349
 30
0
 10
9.445875686340452
 20
252.9501177917693
 30
0
 10
9.445875686340452
 20
252.9501177917693
 30
0
 10
9.445875685341969
 20
252.2076185359514
 30
0
 10
8.838376300313877
 20
251.6001191448362
 30
0
 10
8.095877044495941
 20
251.6001191448451
 30
0
  0
SPLINE
  5
56
100
AcDbEntity
  8
CASE_LAYER
  6
ByLayer
 62
  256
370
   -1
100
AcDbSpline
210
0
220
0
230
0
 70
   11
 71
    3
 72
   29
 73
   25
 74
    0
 42
1e-007
 43
1e-007
 40
0
 40
0
 40
0
 40
0
 40
1
 40
1
 40
1
 40
2
 40
2
 40
2
 40
3
 40
3
 40
3
 40
4
 40
4
 40
4
 40
5
 40
5
 40
5
 40
6
 40
6
 40
6
 40
7
 40
7
 40
7
 40
8
 40
8
 40
8
 40
8
 10
140.658230769208
 20
251.6001191448451
 30
0
 10
140.658230769208
 20
251.6001191448451
 30
0
 10
140.6582280628731
 20
251.6001191448451
 30
0
 10
140.6582280628731
 20
251.6001191448451
 30
0
 10
139.9157288099107
 20
251.6001191448541
 30
0
 10
139.308229421429
 20
252.2076185399992
 30
0
 10
139.3082294218025
 20
252.9501177929616
 30
0
 10
139.3082294218025
 20
252.9501177929616
 30
0
 10
139.3082294218025
 20
252.9501204929616
 30
0
 10
139.3082294218025
 20
252.9501204929616
 30
0
 10
139.3082294221759
 20
253.6926197519547
 30
0
 10
139.9157288109888
 20
254.3001191459204
 30
0
 10
140.6582280699818
 20
254.3001191462194
 30
0
 10
140.6582280699818
 20
254.3001191462194
 30
0
 10
140.6582308029126
 20
254.3001191462194
 30
0
 10
140.6582308029126
 20
254.3001191462194
 30
0
 10
141.4007300383874
 20
254.3001191465185
 30
0
 10
142.0082294120497
 20
253.6926197665098
 30
0
 10
142.0082294110525
 20
252.9501205310349
 30
0
 10
142.0082294110525
 20
252.9501205310349
 30
0
 10
142.0082294110525
 20
252.9501177917693
 30
0
 10
142.0082294110525
 20
252.9501177917693
 30
0
 10
142.008229410054
 20
252.2076185359514
 30
0
 10
141.4007300250259
 20
251.6001191448362
 30
0
 10
140.658230769208
 20
251.6001191448451
 30
0
  0
SPLINE
  5
57
100
AcDbEntity
  8
CASE_LAYER
  6
ByLayer
 62
  256
370
   -1
100
AcDbSpline
210
0
220
0
230
0
 70
   11
 71
    3
 72
   29
 73
   25
 74
    0
 42
1e-007
 43
1e-007
 40
0
 40
0
 40
0
 40
0
 40
1
 40
1
 40
1
 40
2
 40
2
 40
2
 40
3
 40
3
 40
3
 40
4
 40
4
 40
4
 40
5
 40
5
 40
5
 40
6
 40
6
 40
6
 40
7
 40
7
 40
7
 40
8
 40
8
 40
8
 40
8
 10
269.6483257222722
 20
251.6001191448451
 30
0
 10
269.6483257222722
 20
251.6001191448451
 30
0
 10
269.6483230159373
 20
251.6001191448451
 30
0
 10
269.6483230159373
 20
251.6001191448451
 30
0
 10
268.9058237629749
 20
251.6001191448541
 30
0
 10
268.2983243744932
 20
252.2076185399992
 30
0
 10
268.2983243748667
 20
252.9501177929616
 30
0
 10
268.2983243748667
 20
252.9501177929616
 30
0
 10
268.2983243748667
 20
252.9501204929616
 30
0
 10
268.2983243748667
 20
252.9501204929616
 30
0
 10
268.2983243752402
 20
253.6926197519547
 30
0
 10
268.905823764053
 20
254.3001191459204
 30
0
 10
269.648323023046
 20
254.3001191462194
 30
0
 10
269.648323023046
 20
254.3001191462194
 30
0
 10
269.6483257559768
 20
254.3001191462194
 30
0
 10
269.6483257559768
 20
254.3001191462194
 30
0
 10
270.3908249914516
 20
254.3001191465185
 30
0
 10
270.9983243651139
 20
253.6926197665098
 30
0
 10
270.9983243641167
 20
252.9501205310349
 30
0
 10
270.9983243641167
 20
252.9501205310349
 30
0
 10
270.9983243641167
 20
252.9501177917693
 30
0
 10
270.9983243641167
 20
252.9501177917693
 30
0
 10
270.9983243631182
 20
252.2076185359514
 30
0
 10
270.3908249780901
 20
251.6001191448362
 30
0
 10
269.6483257222722
 20
251.6001191448451
 30
0
  0
SPLINE
  5
58
100
AcDbEntity
  8
CASE_LAYER
  6
ByLayer
 62
  256
370
   -1
100
AcDbSpline
210
0
220
0
230
0
 70
   11
 71
    3
 72
   41
 73
   37
 74
    0
 42
1e-007
 43
1e-007
 40
0
 40
0
 40
0
 40
0
 40
1
 40
1
 40
1
 40
2
 40
2
 40
2
 40
3
 40
3
 40
3
 40
4
 40
4
 40
4
 40
5
 40
5
 40
5
 40
6
 40
6
 40
6
 40
7
 40
7
 40
7
 40
8
 40
8
 40
8
 40
9
 40
9
 40
9
 40
10
 40
10
 40
10
 40
11
 40
11
 40
11
 40
12
 40
12
 40
12
 40
12
 10
272.6483243687397
 20
60.58113300219792
 30
0
 10
273.7528938681257
 20
60.58113300219792
 30
0
 10
274.6483243682418
 20
59.6857025020818
 30
0
 10
274.6483243682418
 20
58.58113300269517
 30
0
 10
274.6483243682418
 20
58.58113300269517
 30
0
 10
274.6483243682418
 20
-61.77636989762978
 30
0
 10
274.6483243682418
 20
-61.77636989762978
 30
0
 10
274.6483243682418
 20
-62.88093939701576
 30
0
 10
273.752893868127
 20
-63.77636989713061
 30
0
 10
272.648324368741
 20
-63.77636989713061
 30
0
 10
272.648324368741
 20
-63.77636989713061
 30
0
 10
168.119919558457
 20
-63.77636989712933
 30
0
 10
168.119919558457
 20
-63.77636989712933
 30
0
 10
168.119919558457
 20
-63.77636989712933
 30
0
 10
85.65822943017683
 20
-80.77836389749302
 30
0
 10
85.65822943017683
 20
-80.77836389749302
 30
0
 10
85.65822943017683
 20
-80.77836389749302
 30
0
 10
65.6582294351772
 20
-80.77836389749302
 30
0
 10
65.6582294351772
 20
-80.77836389749302
 30
0
 10
65.6582294351772
 20
-80.77836389749302
 30
0
 10
-16.80346929911652
 20
-63.77636989712933
 30
0
 10
-16.80346929911652
 20
-63.77636989712933
 30
0
 10
-16.80346929911652
 20
-63.77636989712933
 30
0
 10
-82.43912427579833
 20
-63.77636989712933
 30
0
 10
-82.43912427579833
 20
-63.77636989712933
 30
0
 10
-83.54369377518367
 20
-63.77636989712933
 30
0
 10
-84.4391242752982
 20
-62.88093939701447
 30
0
 10
-84.4391242752982
 20
-61.77636989762978
 30
0
 10
-84.4391242752982
 20
-61.77636989762978
 30
0
 10
-84.4391242752982
 20
58.58113300269517
 30
0
 10
-84.4391242752982
 20
58.58113300269517
 30
0
 10
-84.4391242752982
 20
59.6857025020818
 30
0
 10
-83.54369377518367
 20
60.58113300219792
 30
0
 10
-82.43912427579833
 20
60.58113300219792
 30
0
 10
-82.43912427579833
 20
60.58113300219792
 30
0
 10
272.6483243687397
 20
60.58113300219792
 30
0
 10
272.6483243687397
 20
60.58113300219792
 30
0
  0
SPLINE
  5
59
100
AcDbEntity
  8
CASE_LAYER
  6
ByLayer
 62
  256
370
   -1
100
AcDbSpline
210
0
220
0
230
0
 70
   11
 71
    3
 72
   29
 73
   25
 74
    0
 42
1e-007
 43
1e-007
 40
0
 40
0
 40
0
 40
0
 40
1
 40
1
 40
1
 40
2
 40
2
 40
2
 40
3
 40
3
 40
3
 40
4
 40
4
 40
4
 40
5
 40
5
 40
5
 40
6
 40
6
 40
6
 40
7
 40
7
 40
7
 40
8
 40
8
 40
8
 40
8
 10
140.6582307692093
 20
-64.66509257881552
 30
0
 10
140.6582307692093
 20
-64.66509257881552
 30
0
 10
140.6582280628744
 20
-64.66509257881552
 30
0
 10
140.6582280628744
 20
-64.66509257881552
 30
0
 10
139.915728809912
 20
-64.66509257880524
 30
0
 10
139.3082294214303
 20
-64.05759318366141
 30
0
 10
139.3082294218038
 20
-63.31509393069904
 30
0
 10
139.3082294218038
 20
-63.31509393069904
 30
0
 10
139.3082294218038
 20
-63.3150912306977
 30
0
 10
139.3082294218038
 20
-63.3150912306977
 30
0
 10
139.3082294221772
 20
-62.57259197170593
 30
0
 10
139.9157288109888
 20
-61.96509257773896
 30
0
 10
140.6582280699818
 20
-61.96509257743993
 30
0
 10
140.6582280699818
 20
-61.96509257743993
 30
0
 10
140.6582308029139
 20
-61.96509257743993
 30
0
 10
140.6582308029139
 20
-61.96509257743993
 30
0
 10
141.4007300383874
 20
-61.9650925771409
 30
0
 10
142.0082294120497
 20
-62.57259195715091
 30
0
 10
142.0082294110525
 20
-63.31509119262442
 30
0
 10
142.0082294110525
 20
-63.31509119262442
 30
0
 10
142.0082294110525
 20
-63.31509393189131
 30
0
 10
142.0082294110525
 20
-63.31509393189131
 30
0
 10
142.0082294100553
 20
-64.05759318770797
 30
0
 10
141.4007300250259
 20
-64.6650925788245
 30
0
 10
140.6582307692093
 20
-64.66509257881552
 30
0
  0
SPLINE
  5
5A
100
AcDbEntity
  8
CASE_LAYER
  6
ByLayer
 62
  256
370
   -1
100
AcDbSpline
210
0
220
0
230
0
 70
   11
 71
    3
 72
   29
 73
   25
 74
    0
 42
1e-007
 43
1e-007
 40
0
 40
0
 40
0
 40
0
 40
1
 40
1
 40
1
 40
2
 40
2
 40
2
 40
3
 40
3
 40
3
 40
4
 40
4
 40
4
 40
5
 40
5
 40
5
 40
6
 40
6
 40
6
 40
7
 40
7
 40
7
 40
8
 40
8
 40
8
 40
8
 10
269.6483257222722
 20
-60.12636989906825
 30
0
 10
269.6483257222722
 20
-60.12636989906825
 30
0
 10
269.6483230159373
 20
-60.12636989906825
 30
0
 10
269.6483230159373
 20
-60.12636989906825
 30
0
 10
268.9058237629749
 20
-60.12636989905798
 30
0
 10
268.2983243744932
 20
-59.51887050391414
 30
0
 10
268.2983243748667
 20
-58.77637125095177
 30
0
 10
268.2983243748667
 20
-58.77637125095177
 30
0
 10
268.2983243748667
 20
-58.77636855095173
 30
0
 10
268.2983243748667
 20
-58.77636855095173
 30
0
 10
268.2983243752402
 20
-58.03386929195867
 30
0
 10
268.905823764053
 20
-57.42636989799171
 30
0
 10
269.648323023046
 20
-57.42636989769267
 30
0
 10
269.648323023046
 20
-57.42636989769267
 30
0
 10
269.6483257559768
 20
-57.42636989769267
 30
0
 10
269.6483257559768
 20
-57.42636989769267
 30
0
 10
270.3908249914516
 20
-57.42636989739364
 30
0
 10
270.9983243651139
 20
-58.03386927740365
 30
0
 10
270.9983243641167
 20
-58.77636851287716
 30
0
 10
270.9983243641167
 20
-58.77636851287716
 30
0
 10
270.9983243641167
 20
-58.77637125214405
 30
0
 10
270.9983243641167
 20
-58.77637125214405
 30
0
 10
270.9983243631182
 20
-59.5188705079607
 30
0
 10
270.3908249780901
 20
-60.12636989907723
 30
0
 10
269.6483257222722
 20
-60.12636989906825
 30
0
  0
SPLINE
  5
5B
100
AcDbEntity
  8
CASE_LAYER
  6
ByLayer
 62
  256
370
   -1
100
AcDbSpline
210
0
220
0
230
0
 70
   11
 71
    3
 72
   29
 73
   25
 74
    0
 42
1e-007
 43
1e-007
 40
0
 40
0
 40
0
 40
0
 40
1
 40
1
 40
1
 40
2
 40
2
 40
2
 40
3
 40
3
 40
3
 40
4
 40
4
 40
4
 40
5
 40
5
 40
5
 40
6
 40
6
 40
6
 40
7
 40
7
 40
7
 40
8
 40
8
 40
8
 40
8
 10
269.6483257222709
 20
54.2311330027587
 30
0
 10
269.6483257222709
 20
54.2311330027587
 30
0
 10
269.648323015936
 20
54.2311330027587
 30
0
 10
269.648323015936
 20
54.2311330027587
 30
0
 10
268.9058237629736
 20
54.23113300276962
 30
0
 10
268.2983243744919
 20
54.83863239791216
 30
0
 10
268.2983243748654
 20
55.58113165087583
 30
0
 10
268.2983243748654
 20
55.58113165087583
 30
0
 10
268.2983243748654
 20
55.58113435087458
 30
0
 10
268.2983243748654
 20
55.58113435087458
 30
0
 10
268.2983243752388
 20
56.32363360987021
 30
0
 10
268.9058237640517
 20
56.93113300383461
 30
0
 10
269.6483230230448
 20
56.93113300413493
 30
0
 10
269.6483230230448
 20
56.93113300413493
 30
0
 10
269.6483257559755
 20
56.93113300413493
 30
0
 10
269.6483257559755
 20
56.93113300413493
 30
0
 10
270.3908249914503
 20
56.93113300443395
 30
0
 10
270.9983243651126
 20
56.32363362442523
 30
0
 10
270.9983243641154
 20
55.58113438894916
 30
0
 10
270.9983243641154
 20
55.58113438894916
 30
0
 10
270.9983243641154
 20
55.58113164968291
 30
0
 10
270.9983243641154
 20
55.58113164968291
 30
0
 10
270.9983243631169
 20
54.83863239386561
 30
0
 10
270.3908249780889
 20
54.23113300275165
 30
0
 10
269.6483257222709
 20
54.2311330027587
 30
0
  0
SPLINE
  5
5C
100
AcDbEntity
  8
CASE_LAYER
  6
ByLayer
 62
  256
370
   -1
100
AcDbSpline
210
0
220
0
230
0
 70
   11
 71
    3
 72
   29
 73
   25
 74
    0
 42
1e-007
 43
1e-007
 40
0
 40
0
 40
0
 40
0
 40
1
 40
1
 40
1
 40
2
 40
2
 40
2
 40
3
 40
3
 40
3
 40
4
 40
4
 40
4
 40
5
 40
5
 40
5
 40
6
 40
6
 40
6
 40
7
 40
7
 40
7
 40
8
 40
8
 40
8
 40
8
 10
140.6582307692093
 20
54.2311330027587
 30
0
 10
140.6582307692093
 20
54.2311330027587
 30
0
 10
140.6582280628744
 20
54.2311330027587
 30
0
 10
140.6582280628744
 20
54.2311330027587
 30
0
 10
139.915728809912
 20
54.23113300276962
 30
0
 10
139.3082294214303
 20
54.83863239791216
 30
0
 10
139.3082294218038
 20
55.58113165087583
 30
0
 10
139.3082294218038
 20
55.58113165087583
 30
0
 10
139.3082294218038
 20
55.58113435087458
 30
0
 10
139.3082294218038
 20
55.58113435087458
 30
0
 10
139.3082294221772
 20
56.32363360987021
 30
0
 10
139.9157288109901
 20
56.93113300383461
 30
0
 10
140.6582280699831
 20
56.93113300413493
 30
0
 10
140.6582280699831
 20
56.93113300413493
 30
0
 10
140.6582308029139
 20
56.93113300413493
 30
0
 10
140.6582308029139
 20
56.93113300413493
 30
0
 10
141.4007300383887
 20
56.93113300443395
 30
0
 10
142.008229412051
 20
56.32363362442523
 30
0
 10
142.0082294110538
 20
55.58113438894916
 30
0
 10
142.0082294110538
 20
55.58113438894916
 30
0
 10
142.0082294110538
 20
55.58113164968291
 30
0
 10
142.0082294110538
 20
55.58113164968291
 30
0
 10
142.0082294100553
 20
54.83863239386561
 30
0
 10
141.4007300250272
 20
54.23113300275165
 30
0
 10
140.6582307692093
 20
54.2311330027587
 30
0
  0
SPLINE
  5
5D
100
AcDbEntity
  8
CASE_LAYER
  6
ByLayer
 62
  256
370
   -1
100
AcDbSpline
210
0
220
0
230
0
 70
   11
 71
    3
 72
   29
 73
   25
 74
    0
 42
1e-007
 43
1e-007
 40
0
 40
0
 40
0
 40
0
 40
1
 40
1
 40
1
 40
2
 40
2
 40
2
 40
3
 40
3
 40
3
 40
4
 40
4
 40
4
 40
5
 40
5
 40
5
 40
6
 40
6
 40
6
 40
7
 40
7
 40
7
 40
8
 40
8
 40
8
 40
8
 10
8.095877044826736
 20
54.2311330027587
 30
0
 10
8.095877044826736
 20
54.2311330027587
 30
0
 10
8.095874338491518
 20
54.2311330027587
 30
0
 10
8.095874338491518
 20
54.2311330027587
 30
0
 10
7.353375085529143
 20
54.23113300276962
 30
0
 10
6.745875697047427
 20
54.83863239791216
 30
0
 10
6.745875697420896
 20
55.58113165087583
 30
0
 10
6.745875697420896
 20
55.58113165087583
 30
0
 10
6.745875697420896
 20
55.58113435087458
 30
0
 10
6.745875697420896
 20
55.58113435087458
 30
0
 10
6.745875697794364
 20
56.32363360987021
 30
0
 10
7.353375086607198
 20
56.93113300383461
 30
0
 10
8.09587434560026
 20
56.93113300413493
 30
0
 10
8.09587434560026
 20
56.93113300413493
 30
0
 10
8.095877078531016
 20
56.93113300413493
 30
0
 10
8.095877078531016
 20
56.93113300413493
 30
0
 10
8.83837631400581
 20
56.93113300443395
 30
0
 10
9.445875687668128
 20
56.32363362442202
 30
0
 10
9.445875686670927
 20
55.58113438894916
 30
0
 10
9.445875686670927
 20
55.58113438894916
 30
0
 10
9.445875686670927
 20
55.58113164968291
 30
0
 10
9.445875686670927
 20
55.58113164968291
 30
0
 10
9.445875685672444
 20
54.83863239386561
 30
0
 10
8.838376300644352
 20
54.2311330027478
 30
0
 10
8.095877044826736
 20
54.2311330027587
 30
0
  0
SPLINE
  5
5E
100
AcDbEntity
  8
CASE_LAYER
  6
ByLayer
 62
  256
370
   -1
100
AcDbSpline
210
0
220
0
230
0
 70
   11
 71
    3
 72
   29
 73
   25
 74
    0
 42
1e-007
 43
1e-007
 40
0
 40
0
 40
0
 40
0
 40
1
 40
1
 40
1
 40
2
 40
2
 40
2
 40
3
 40
3
 40
3
 40
4
 40
4
 40
4
 40
5
 40
5
 40
5
 40
6
 40
6
 40
6
 40
7
 40
7
 40
7
 40
8
 40
8
 40
8
 40
8
 10
-79.43912292376754
 20
54.2311330027587
 30
0
 10
-79.43912292376754
 20
54.2311330027587
 30
0
 10
-79.43912563010244
 20
54.2311330027587
 30
0
 10
-79.43912563010244
 20
54.2311330027587
 30
0
 10
-80.18162488306481
 20
54.23113300276962
 30
0
 10
-80.78912427154653
 20
54.83863239791216
 30
0
 10
-80.78912427117307
 20
55.58113165087583
 30
0
 10
-80.78912427117307
 20
55.58113165087583
 30
0
 10
-80.78912427117307
 20
55.58113435087458
 30
0
 10
-80.78912427117307
 20
55.58113435087458
 30
0
 10
-80.78912427079959
 20
56.32363360987021
 30
0
 10
-80.18162488198676
 20
56.93113300383461
 30
0
 10
-79.4391256229937
 20
56.93113300413493
 30
0
 10
-79.4391256229937
 20
56.93113300413493
 30
0
 10
-79.43912289006295
 20
56.93113300413493
 30
0
 10
-79.43912289006295
 20
56.93113300413493
 30
0
 10
-78.69662365458815
 20
56.93113300443395
 30
0
 10
-78.08912428092583
 20
56.32363362442523
 30
0
 10
-78.08912428192303
 20
55.58113438894916
 30
0
 10
-78.08912428192303
 20
55.58113438894916
 30
0
 10
-78.08912428192303
 20
55.58113164968291
 30
0
 10
-78.08912428192303
 20
55.58113164968291
 30
0
 10
-78.08912428292152
 20
54.83863239386561
 30
0
 10
-78.69662366794961
 20
54.23113300275165
 30
0
 10
-79.43912292376754
 20
54.2311330027587
 30
0
  0
SPLINE
  5
5F
100
AcDbEntity
  8
CASE_LAYER
  6
ByLayer
 62
  256
370
   -1
100
AcDbSpline
210
0
220
0
230
0
 70
   11
 71
    3
 72
   29
 73
   25
 74
    0
 42
1e-007
 43
1e-007
 40
0
 40
0
 40
0
 40
0
 40
1
 40
1
 40
1
 40
2
 40
2
 40
2
 40
3
 40
3
 40
3
 40
4
 40
4
 40
4
 40
5
 40
5
 40
5
 40
6
 40
6
 40
6
 40
7
 40
7
 40
7
 40
8
 40
8
 40
8
 40
8
 10
-79.43912292376754
 20
-60.12636989906697
 30
0
 10
-79.43912292376754
 20
-60.12636989906697
 30
0
 10
-79.43912563010244
 20
-60.12636989906697
 30
0
 10
-79.43912563010244
 20
-60.12636989906697
 30
0
 10
-80.18162488306481
 20
-60.12636989905798
 30
0
 10
-80.78912427154653
 20
-59.51887050391286
 30
0
 10
-80.78912427117307
 20
-58.77637125095049
 30
0
 10
-80.78912427117307
 20
-58.77637125095049
 30
0
 10
-80.78912427117307
 20
-58.77636855095044
 30
0
 10
-80.78912427117307
 20
-58.77636855095044
 30
0
 10
-80.78912427079959
 20
-58.03386929195738
 30
0
 10
-80.18162488198676
 20
-57.42636989799171
 30
0
 10
-79.4391256229937
 20
-57.42636989769139
 30
0
 10
-79.4391256229937
 20
-57.42636989769139
 30
0
 10
-79.43912289006295
 20
-57.42636989769139
 30
0
 10
-79.43912289006295
 20
-57.42636989769139
 30
0
 10
-78.69662365458815
 20
-57.42636989739364
 30
0
 10
-78.08912428092583
 20
-58.03386927740236
 30
0
 10
-78.08912428192303
 20
-58.77636851287716
 30
0
 10
-78.08912428192303
 20
-58.77636851287716
 30
0
 10
-78.08912428192303
 20
-58.77637125214277
 30
0
 10
-78.08912428192303
 20
-58.77637125214277
 30
0
 10
-78.08912428292152
 20
-59.5188705079607
 30
0
 10
-78.69662366794961
 20
-60.12636989907595
 30
0
 10
-79.43912292376754
 20
-60.12636989906697
 30
0
  0
SPLINE
  5
60
100
AcDbEntity
  8
CASE_LAYER
  6
ByLayer
 62
  256
370
   -1
100
AcDbSpline
210
0
220
0
230
0
 70
   11
 71
    3
 72
   29
 73
   25
 74
    0
 42
1e-007
 43
1e-007
 40
0
 40
0
 40
0
 40
0
 40
1
 40
1
 40
1
 40
2
 40
2
 40
2
 40
3
 40
3
 40
3
 40
4
 40
4
 40
4
 40
5
 40
5
 40
5
 40
6
 40
6
 40
6
 40
7
 40
7
 40
7
 40
8
 40
8
 40
8
 40
8
 10
10.65823080170771
 20
-64.66509257881422
 30
0
 10
10.65823080170771
 20
-64.66509257881422
 30
0
 10
10.65822809537281
 20
-64.66509257881422
 30
0
 10
10.65822809537281
 20
-64.66509257881422
 30
0
 10
9.915728842410433
 20
-64.66509257880524
 30
0
 10
9.308229453928718
 20
-64.05759318366013
 30
0
 10
9.308229454302186
 20
-63.31509393069775
 30
0
 10
9.308229454302186
 20
-63.31509393069775
 30
0
 10
9.308229454302186
 20
-63.3150912306977
 30
0
 10
9.308229454302186
 20
-63.3150912306977
 30
0
 10
9.308229454675654
 20
-62.57259197170464
 30
0
 10
9.915728843488488
 20
-61.96509257773896
 30
0
 10
10.65822810248155
 20
-61.96509257743993
 30
0
 10
10.65822810248155
 20
-61.96509257743993
 30
0
 10
10.65823083541231
 20
-61.96509257743993
 30
0
 10
10.65823083541231
 20
-61.96509257743993
 30
0
 10
11.4007300708871
 20
-61.9650925771409
 30
0
 10
12.00822944454942
 20
-62.57259195714963
 30
0
 10
12.00822944355222
 20
-63.31509119262442
 30
0
 10
12.00822944355222
 20
-63.31509119262442
 30
0
 10
12.00822944355222
 20
-63.31509393189003
 30
0
 10
12.00822944355222
 20
-63.31509393189003
 30
0
 10
12.00822944255373
 20
-64.05759318770669
 30
0
 10
11.40073005752564
 20
-64.66509257882321
 30
0
 10
10.65823080170771
 20
-64.66509257881422
 30
0
  0
SPLINE
  5
61
100
AcDbEntity
  8
CASE_LAYER
  6
ByLayer
 62
  256
370
   -1
100
AcDbSpline
210
0
220
0
230
0
 70
   11
 71
    3
 72
   77
 73
   73
 74
    0
 42
1e-007
 43
1e-007
 40
0
 40
0
 40
0
 40
0
 40
1
 40
1
 40
1
 40
2
 40
2
 40
2
 40
3
 40
3
 40
3
 40
4
 40
4
 40
4
 40
5
 40
5
 40
5
 40
6
 40
6
 40
6
 40
7
 40
7
 40
7
 40
8
 40
8
 40
8
 40
9
 40
9
 40
9
 40
10
 40
10
 40
10
 40
11
 40
11
 40
11
 40
12
 40
12
 40
12
 40
13
 40
13
 40
13
 40
14
 40
14
 40
14
 40
15
 40
15
 40
15
 40
16
 40
16
 40
16
 40
17
 40
17
 40
17
 40
18
 40
18
 40
18
 40
19
 40
19
 40
19
 40
20
 40
20
 40
20
 40
21
 40
21
 40
21
 40
22
 40
22
 40
22
 40
23
 40
23
 40
23
 40
24
 40
24
 40
24
 40
24
 10
245.0983234060145
 20
-5.151376975805534
 30
0
 10
245.0983234060145
 20
-5.979812995718919
 30
0
 10
245.7699034922257
 20
-6.651393081927529
 30
0
 10
246.5983395121391
 20
-6.651393081927529
 30
0
 10
246.5983395121391
 20
-6.651393081927529
 30
0
 10
263.6483108552616
 20
-6.651393081927529
 30
0
 10
263.6483108552616
 20
-6.651393081927529
 30
0
 10
264.476746875175
 20
-6.651393081927529
 30
0
 10
265.1483269613861
 20
-5.979812995718919
 30
0
 10
265.1483269613861
 20
-5.151376975805534
 30
0
 10
265.1483269613861
 20
-5.151376975805534
 30
0
 10
265.1483269613861
 20
11.8985422995014
 30
0
 10
265.1483269613861
 20
11.8985422995014
 30
0
 10
265.1483269613861
 20
12.72697833365665
 30
0
 10
264.4767684202664
 20
13.39856982588344
 30
0
 10
263.6483323871084
 20
13.39861047344024
 30
0
 10
263.6483323871084
 20
13.39861047344024
 30
0
 10
261.1244867501923
 20
13.39873430697822
 30
0
 10
261.1244867501923
 20
13.39873430697822
 30
0
 10
260.9885571411077
 20
13.398740976422
 30
0
 10
260.8783679577336
 20
13.50893556640696
 30
0
 10
260.8783679577336
 20
13.64486517565454
 30
0
 10
260.8783679577336
 20
13.64486517565454
 30
0
 10
260.8783679577336
 20
30.94861589439996
 30
0
 10
260.8783679577336
 20
30.94861589439996
 30
0
 10
260.8783679577336
 20
31.77702249567735
 30
0
 10
260.2068248647264
 20
32.44858568148788
 30
0
 10
259.3784182638224
 20
32.44861046733723
 30
0
 10
259.3784182638224
 20
32.44861046733723
 30
0
 10
256.9561586714632
 20
32.44868294111101
 30
0
 10
256.9561586714632
 20
32.44868294111101
 30
0
 10
256.8179581520938
 20
32.44868707605855
 30
0
 10
256.7059266881604
 20
32.56072189201475
 30
0
 10
256.7059266881604
 20
32.69892241144318
 30
0
 10
256.7059266881604
 20
32.69892241144318
 30
0
 10
256.7059266881604
 20
49.99861588963746
 30
0
 10
256.7059266881604
 20
49.99861588963746
 30
0
 10
256.7059266881604
 20
50.82705190955085
 30
0
 10
256.0343466019492
 20
51.4986319957633
 30
0
 10
255.2059105820358
 20
51.4986319957633
 30
0
 10
255.2059105820358
 20
51.4986319957633
 30
0
 10
238.1559392389133
 20
51.4986319957633
 30
0
 10
238.1559392389133
 20
51.4986319957633
 30
0
 10
237.3275032189999
 20
51.4986319957633
 30
0
 10
236.6559231327888
 20
50.82705190955085
 30
0
 10
236.6559231327888
 20
49.99861588963746
 30
0
 10
236.6559231327888
 20
49.99861588963746
 30
0
 10
236.6559231327888
 20
32.94862301466947
 30
0
 10
236.6559231327888
 20
32.94862301466947
 30
0
 10
236.6559231327888
 20
32.12008547341776
 30
0
 10
237.3276705994424
 20
31.44846806565227
 30
0
 10
238.1562081251605
 20
31.44862849662378
 30
0
 10
238.1562081251605
 20
31.44862849662378
 30
0
 10
240.5825448042327
 20
31.44909831186927
 30
0
 10
240.5825448042327
 20
31.44909831186927
 30
0
 10
240.7183114103005
 20
31.44912460056173
 30
0
 10
240.8283859342087
 20
31.33907138848605
 30
0
 10
240.8283859342087
 20
31.20330477987196
 30
0
 10
240.8283859342087
 20
31.20330477987196
 30
0
 10
240.8283859342087
 20
13.8983681003573
 30
0
 10
240.8283859342087
 20
13.8983681003573
 30
0
 10
240.8283859342087
 20
13.06998172057468
 30
0
 10
241.4999941387311
 20
12.39847801294846
 30
0
 10
242.3283805084865
 20
12.39860691330997
 30
0
 10
242.3283805084865
 20
12.39860691330997
 30
0
 10
244.8486680707892
 20
12.39899908052169
 30
0
 10
244.8486680707892
 20
12.39899908052169
 30
0
 10
244.9865426207263
 20
12.3990205343738
 30
0
 10
245.0983234060145
 20
12.28725714128698
 30
0
 10
245.0983234060145
 20
12.14938258968146
 30
0
 10
245.0983234060145
 20
12.14938258968146
 30
0
 10
245.0983234060145
 20
-5.151376975805534
 30
0
 10
245.0983234060145
 20
-5.151376975805534
 30
0
  0
SPLINE
  5
62
100
AcDbEntity
  8
CASE_LAYER
  6
ByLayer
 62
  256
370
   -1
100
AcDbSpline
210
0
220
0
230
0
 70
   11
 71
    3
 72
  149
 73
  145
 74
    0
 42
1e-007
 43
1e-007
 40
0
 40
0
 40
0
 40
0
 40
1
 40
1
 40
1
 40
2
 40
2
 40
2
 40
3
 40
3
 40
3
 40
4
 40
4
 40
4
 40
5
 40
5
 40
5
 40
6
 40
6
 40
6
 40
7
 40
7
 40
7
 40
8
 40
8
 40
8
 40
9
 40
9
 40
9
 40
10
 40
10
 40
10
 40
11
 40
11
 40
11
 40
12
 40
12
 40
12
 40
13
 40
13
 40
13
 40
14
 40
14
 40
14
 40
15
 40
15
 40
15
 40
16
 40
16
 40
16
 40
17
 40
17
 40
17
 40
18
 40
18
 40
18
 40
19
 40
19
 40
19
 40
20
 40
20
 40
20
 40
21
 40
21
 40
21
 40
22
 40
22
 40
22
 40
23
 40
23
 40
23
 40
24
 40
24
 40
24
 40
25
 40
25
 40
25
 40
26
 40
26
 40
26
 40
27
 40
27
 40
27
 40
28
 40
28
 40
28
 40
29
 40
29
 40
29
 40
30
 40
30
 40
30
 40
31
 40
31
 40
31
 40
32
 40
32
 40
32
 40
33
 40
33
 40
33
 40
34
 40
34
 40
34
 40
35
 40
35
 40
35
 40
36
 40
36
 40
36
 40
37
 40
37
 40
37
 40
38
 40
38
 40
38
 40
39
 40
39
 40
39
 40
40
 40
40
 40
40
 40
41
 40
41
 40
41
 40
42
 40
42
 40
42
 40
43
 40
43
 40
43
 40
44
 40
44
 40
44
 40
45
 40
45
 40
45
 40
46
 40
46
 40
46
 40
47
 40
47
 40
47
 40
48
 40
48
 40
48
 40
48
 10
167.2457342208095
 20
-49.56720559052328
 30
0
 10
168.0560591152702
 20
-49.39496604196555
 30
0
 10
168.5733290473706
 20
-48.59843965002056
 30
0
 10
168.4010883691492
 20
-47.78811499567724
 30
0
 10
168.4010883691492
 20
-47.78811499567724
 30
0
 10
164.783587957244
 20
-30.7691982034894
 30
0
 10
164.783587957244
 20
-30.7691982034894
 30
0
 10
164.7501649685767
 20
-30.61195618598889
 30
0
 10
164.8700814232291
 20
-30.46387154413019
 30
0
 10
165.0308363554676
 20
-30.46387154413019
 30
0
 10
165.0308363554676
 20
-30.46387154413019
 30
0
 10
189.4481457398055
 20
-30.46387154413019
 30
0
 10
189.4481457398055
 20
-30.46387154413019
 30
0
 10
189.4481457398055
 20
-30.46387154413019
 30
0
 10
192.1815921570367
 20
-30.46387154413019
 30
0
 10
192.1815921570367
 20
-30.46387154413019
 30
0
 10
192.1815921570367
 20
-30.46387154413019
 30
0
 10
220.786133843679
 20
-30.46387154413019
 30
0
 10
220.786133843679
 20
-30.46387154413019
 30
0
 10
221.6145698635923
 20
-30.46387154413019
 30
0
 10
222.2861499498035
 20
-29.79229145791901
 30
0
 10
222.2861499498035
 20
-28.96385543800563
 30
0
 10
222.2861499498035
 20
-28.96385543800563
 30
0
 10
222.2861499498035
 20
-11.66219486117891
 30
0
 10
222.2861499498035
 20
-11.66219486117891
 30
0
 10
222.2861499498035
 20
-11.52457752280811
 30
0
 10
222.3977127966296
 20
-11.41301765929864
 30
0
 10
222.5353301349503
 20
-11.41302133939514
 30
0
 10
222.5353301349503
 20
-11.41302133939514
 30
0
 10
239.8355984948666
 20
-11.41348397457896
 30
0
 10
239.8355984948666
 20
-11.41348397457896
 30
0
 10
240.6640382872735
 20
-11.41350612830398
 30
0
 10
241.3356331807182
 20
-10.74192919407614
 30
0
 10
241.3356331807182
 20
-9.913489401374102
 30
0
 10
241.3356331807182
 20
-9.913489401374102
 30
0
 10
241.3356331807182
 20
7.136525005441954
 30
0
 10
241.3356331807182
 20
7.136525005441954
 30
0
 10
241.3356331807182
 20
7.964927959823067
 30
0
 10
240.6640957790386
 20
8.636489634873845
 30
0
 10
239.8356928251991
 20
8.636519577762552
 30
0
 10
239.8356928251991
 20
8.636519577762552
 30
0
 10
237.311233016419
 20
8.636610825163647
 30
0
 10
237.311233016419
 20
8.636610825163647
 30
0
 10
237.1757202050562
 20
8.636615723316584
 30
0
 10
237.0658679636867
 20
8.746471935401672
 30
0
 10
237.0658679636867
 20
8.881984746853039
 30
0
 10
237.0658679636867
 20
8.881984746853039
 30
0
 10
237.0658679636867
 20
26.18588297342766
 30
0
 10
237.0658679636867
 20
26.18588297342766
 30
0
 10
237.0658679636867
 20
27.01434826746256
 30
0
 10
236.3943386715262
 20
27.68599147558176
 30
0
 10
235.5658733894089
 20
27.68613200171643
 30
0
 10
235.5658733894089
 20
27.68613200171643
 30
0
 10
233.144713349668
 20
27.68654268429405
 30
0
 10
233.144713349668
 20
27.68654268429405
 30
0
 10
233.005900883055
 20
27.68656622997723
 30
0
 10
232.8933836304199
 20
27.79910256965761
 30
0
 10
232.8933836304199
 20
27.93791503826753
 30
0
 10
232.8933836304199
 20
27.93791503826753
 30
0
 10
232.8933836304199
 20
45.23613742267615
 30
0
 10
232.8933836304199
 20
45.23613742267615
 30
0
 10
232.8933836304199
 20
46.06456155087769
 30
0
 10
232.2218131843443
 20
46.73613199695393
 30
0
 10
231.3933890561422
 20
46.73613199695393
 30
0
 10
231.3933890561422
 20
46.73613199695393
 30
0
 10
175.7433836447074
 20
46.73613199695393
 30
0
 10
175.7433836447074
 20
46.73613199695393
 30
0
 10
175.7433836447074
 20
46.73613199695393
 30
0
 10
175.7433836447074
 20
46.73651957019474
 30
0
 10
175.7433836447074
 20
46.73651957019474
 30
0
 10
175.7433836447074
 20
47.56494369837189
 30
0
 10
175.0718131986318
 20
48.23651414447252
 30
0
 10
174.2433890704297
 20
48.23651414447252
 30
0
 10
174.2433890704297
 20
48.23651414447252
 30
0
 10
157.1933746636136
 20
48.23651414447252
 30
0
 10
157.1933746636136
 20
48.23651414447252
 30
0
 10
156.3649505354101
 20
48.23651414447252
 30
0
 10
155.6933800893358
 20
47.56494369840013
 30
0
 10
155.6933800893358
 20
46.73651957019474
 30
0
 10
155.6933800893358
 20
46.73651957019474
 30
0
 10
155.6933800893358
 20
46.37758368432848
 30
0
 10
155.6933800893358
 20
46.37758368432848
 30
0
 10
155.6933800893358
 20
46.37758368432848
 30
0
 10
79.31421111446758
 20
30.14269987044763
 30
0
 10
79.31421111446758
 20
30.14269987044763
 30
0
 10
78.50388672023826
 20
29.9704602065676
 30
0
 10
77.98661720135357
 20
29.17393422939633
 30
0
 10
78.15885777663361
 20
28.36361002889081
 30
0
 10
78.15885777663361
 20
28.36361002889081
 30
0
 10
81.75657310665054
 20
11.43777362989589
 30
0
 10
81.75657310665054
 20
11.43777362989589
 30
0
 10
81.78482730117187
 20
11.30484875113672
 30
0
 10
81.6999748155134
 20
11.17418733306272
 30
0
 10
81.5670498896253
 20
11.14593336025866
 30
0
 10
81.5670498896253
 20
11.14593336025866
 30
0
 10
73.95799446930677
 20
9.528583991932896
 30
0
 10
73.95799446930677
 20
9.528583991932896
 30
0
 10
73.14766918906015
 20
9.356344599822679
 30
0
 10
72.63039865027731
 20
8.559818222108001
 30
0
 10
72.80263874687586
 20
7.749493091606026
 30
0
 10
72.80263874687586
 20
7.749493091606026
 30
0
 10
76.34753424329895
 20
-8.927912242455344
 30
0
 10
76.34753424329895
 20
-8.927912242455344
 30
0
 10
76.51977423184404
 20
-9.738236864600774
 30
0
 10
77.31629977561819
 20
-10.25550704095489
 30
0
 10
78.12662460199846
 20
-10.08326801325657
 30
0
 10
78.12662460199846
 20
-10.08326801325657
 30
0
 10
81.07702400883751
 20
-9.456144286310336
 30
0
 10
81.07702400883751
 20
-9.456144286310336
 30
0
 10
81.2099984567658
 20
-9.427879831275471
 30
0
 10
81.34070843204185
 20
-9.51276398698
 30
0
 10
81.36897299746724
 20
-9.645738411441355
 30
0
 10
81.36897299746724
 20
-9.645738411441355
 30
0
 10
84.96664636949579
 20
-26.57147347381423
 30
0
 10
84.96664636949579
 20
-26.57147347381423
 30
0
 10
85.13888589690697
 20
-27.38179734337502
 30
0
 10
85.93541008331921
 20
-27.89906759527251
 30
0
 10
86.74573432573538
 20
-27.72682982202395
 30
0
 10
86.74573432573538
 20
-27.72682982202395
 30
0
 10
89.69537393005629
 20
-27.0998717097762
 30
0
 10
89.69537393005629
 20
-27.0998717097762
 30
0
 10
89.82877577584135
 20
-27.07151659504287
 30
0
 10
89.95990577492879
 20
-27.15667353673312
 30
0
 10
89.9882613293004
 20
-27.29007528907172
 30
0
 10
89.9882613293004
 20
-27.29007528907172
 30
0
 10
93.63774647785321
 20
-44.45947030681721
 30
0
 10
93.63774647785321
 20
-44.45947030681721
 30
0
 10
93.66646200148649
 20
-44.59456557323052
 30
0
 10
93.58022410680155
 20
-44.7273604353683
 30
0
 10
93.44512881367687
 20
-44.75607583333895
 30
0
 10
93.44512881367687
 20
-44.75607583333895
 30
0
 10
85.84012722164758
 20
-46.37256921542686
 30
0
 10
85.84012722164758
 20
-46.37256921542686
 30
0
 10
85.02980276545065
 20
-46.54480903746132
 30
0
 10
84.51253301566341
 20
-47.34133482314446
 30
0
 10
84.68477296326168
 20
-48.15165925265312
 30
0
 10
84.68477296326168
 20
-48.15165925265312
 30
0
 10
88.22967230239423
 20
-64.82908266522196
 30
0
 10
88.22967230239423
 20
-64.82908266522196
 30
0
 10
88.40190982686892
 20
-65.63939569484195
 30
0
 10
89.19842432085257
 20
-66.15665818277913
 30
0
 10
90.00873739877966
 20
-65.98442088556472
 30
0
 10
90.00873739877966
 20
-65.98442088556472
 30
0
 10
167.2457342208095
 20
-49.56720559052328
 30
0
 10
167.2457342208095
 20
-49.56720559052328
 30
0
  0
SPLINE
  5
63
100
AcDbEntity
  8
CASE_LAYER
  6
ByLayer
 62
  256
370
   -1
100
AcDbSpline
210
0
220
0
230
0
 70
   11
 71
    3
 72
  155
 73
  151
 74
    0
 42
1e-007
 43
1e-007
 40
0
 40
0
 40
0
 40
0
 40
1
 40
1
 40
1
 40
2
 40
2
 40
2
 40
3
 40
3
 40
3
 40
4
 40
4
 40
4
 40
5
 40
5
 40
5
 40
6
 40
6
 40
6
 40
7
 40
7
 40
7
 40
8
 40
8
 40
8
 40
9
 40
9
 40
9
 40
10
 40
10
 40
10
 40
11
 40
11
 40
11
 40
12
 40
12
 40
12
 40
13
 40
13
 40
13
 40
14
 40
14
 40
14
 40
15
 40
15
 40
15
 40
16
 40
16
 40
16
 40
17
 40
17
 40
17
 40
18
 40
18
 40
18
 40
19
 40
19
 40
19
 40
20
 40
20
 40
20
 40
21
 40
21
 40
21
 40
22
 40
22
 40
22
 40
23
 40
23
 40
23
 40
24
 40
24
 40
24
 40
25
 40
25
 40
25
 40
26
 40
26
 40
26
 40
27
 40
27
 40
27
 40
28
 40
28
 40
28
 40
29
 40
29
 40
29
 40
30
 40
30
 40
30
 40
31
 40
31
 40
31
 40
32
 40
32
 40
32
 40
33
 40
33
 40
33
 40
34
 40
34
 40
34
 40
35
 40
35
 40
35
 40
36
 40
36
 40
36
 40
37
 40
37
 40
37
 40
38
 40
38
 40
38
 40
39
 40
39
 40
39
 40
40
 40
40
 40
40
 40
41
 40
41
 40
41
 40
42
 40
42
 40
42
 40
43
 40
43
 40
43
 40
44
 40
44
 40
44
 40
45
 40
45
 40
45
 40
46
 40
46
 40
46
 40
47
 40
47
 40
47
 40
48
 40
48
 40
48
 40
49
 40
49
 40
49
 40
50
 40
50
 40
50
 40
50
 10
-62.78498545669235
 20
27.6866260088463
 30
0
 10
-62.78498545669235
 20
27.6866260088463
 30
0
 10
-65.44879665248919
 20
27.68613200171643
 30
0
 10
-65.44879665248919
 20
27.68613200171643
 30
0
 10
-66.13936735844199
 20
27.68600393451513
 30
0
 10
-66.69911761711035
 20
27.12614985983183
 30
0
 10
-66.69911761711035
 20
26.43557914200471
 30
0
 10
-66.69911761711035
 20
26.43557914200471
 30
0
 10
-66.69911761711035
 20
8.891300213965128
 30
0
 10
-66.69911761711035
 20
8.891300213965128
 30
0
 10
-66.69911761711035
 20
8.750513227794398
 30
0
 10
-66.81324118549891
 20
8.636379213135832
 30
0
 10
-66.9540281710796
 20
8.636366326830904
 30
0
 10
-66.9540281710796
 20
8.636366326830904
 30
0
 10
-69.51405238877788
 20
8.636132006478926
 30
0
 10
-69.51405238877788
 20
8.636132006478926
 30
0
 10
-70.20460410143311
 20
8.636068799919251
 30
0
 10
-70.76437335339904
 20
8.076248309639647
 30
0
 10
-70.76437335339904
 20
7.385696594090684
 30
0
 10
-70.76437335339904
 20
7.385696594090684
 30
0
 10
-70.76437335339904
 20
-10.16594760017962
 30
0
 10
-70.76437335339904
 20
-10.16594760017962
 30
0
 10
-70.76437335339904
 20
-10.30242478735113
 30
0
 10
-70.87499831867362
 20
-10.41306756750107
 30
0
 10
-71.01147550407724
 20
-10.41308954380786
 30
0
 10
-71.01147550407724
 20
-10.41308954380786
 30
0
 10
-73.43886557413883
 20
-10.41348041551777
 30
0
 10
-73.43886557413883
 20
-10.41348041551777
 30
0
 10
-74.26730337910783
 20
-10.41348041551777
 30
0
 10
-74.93886014841661
 20
-11.08505871666981
 30
0
 10
-74.93886014841661
 20
-11.91347498979555
 30
0
 10
-74.93886014841661
 20
-11.91347498979555
 30
0
 10
-74.92912775367078
 20
-48.01387696508991
 30
0
 10
-74.92912775367078
 20
-48.01387696508991
 30
0
 10
-74.92912775367078
 20
-48.8422932382118
 30
0
 10
-74.25754945251489
 20
-49.51387153936769
 30
0
 10
-73.42911164754655
 20
-49.51387153936769
 30
0
 10
-73.42911164754655
 20
-49.51387153936769
 30
0
 10
-46.60444516530189
 20
-49.51387153936769
 30
0
 10
-46.60444516530189
 20
-49.51387153936769
 30
0
 10
-45.91391196414762
 20
-49.51387153936769
 30
0
 10
-45.35412420068042
 20
-48.95408377589952
 30
0
 10
-45.35412420068042
 20
-48.26355057474622
 30
0
 10
-45.35412420068042
 20
-48.26355057474622
 30
0
 10
-45.35412420068042
 20
-30.71512409483351
 30
0
 10
-45.35412420068042
 20
-30.71512409483351
 30
0
 10
-45.35412420068042
 20
-30.57614758568601
 30
0
 10
-45.24146058589021
 20
-30.46348533748117
 30
0
 10
-45.1024840767533
 20
-30.46348702324637
 30
0
 10
-45.1024840767533
 20
-30.46348702324637
 30
0
 10
-13.71285842185085
 20
-30.46386777487345
 30
0
 10
-13.71285842185085
 20
-30.46386777487345
 30
0
 10
-13.55282667827904
 20
-30.46386971603486
 30
0
 10
-13.43345078151042
 20
-30.61128853493852
 30
0
 10
-13.46672328858549
 20
-30.7678231931689
 30
0
 10
-13.46672328858549
 20
-30.7678231931689
 30
0
 10
-17.13654971769872
 20
-48.03297921378287
 30
0
 10
-17.13654971769872
 20
-48.03297921378287
 30
0
 10
-17.28012053008856
 20
-48.70842600228874
 30
0
 10
-16.84894973475078
 20
-49.37237091575775
 30
0
 10
-16.17350290114276
 20
-49.51594151595696
 30
0
 10
-16.17350290114276
 20
-49.51594151595696
 30
0
 10
66.21034413517661
 20
-67.02716190706668
 30
0
 10
66.21034413517661
 20
-67.02716190706668
 30
0
 10
66.88579093761314
 20
-67.17073250064099
 30
0
 10
67.54973575271674
 20
-66.73956175500248
 30
0
 10
67.69330653818827
 20
-66.06411499335428
 30
0
 10
67.69330653818827
 20
-66.06411499335428
 30
0
 10
71.34202231075156
 20
-48.8982741528528
 30
0
 10
71.34202231075156
 20
-48.8982741528528
 30
0
 10
71.48559327690532
 20
-48.22282654116384
 30
0
 10
71.05442200232712
 20
-47.55888081770124
 30
0
 10
70.37897436839079
 20
-47.41530995621116
 30
0
 10
70.37897436839079
 20
-47.41530995621116
 30
0
 10
62.5294444878846
 20
-45.74684046928377
 30
0
 10
62.5294444878846
 20
-45.74684046928377
 30
0
 10
62.39451365463468
 20
-45.71816002834701
 30
0
 10
62.30838071231677
 20
-45.58552686199519
 30
0
 10
62.33706120150578
 20
-45.45059603900123
 30
0
 10
62.33706120150578
 20
-45.45059603900123
 30
0
 10
65.98588929614007
 20
-28.28424387100672
 30
0
 10
65.98588929614007
 20
-28.28424387100672
 30
0
 10
66.12946045285631
 20
-27.60879603585506
 30
0
 10
65.69828882671366
 20
-26.94485006906659
 30
0
 10
65.02284085225075
 20
-26.8012795677609
 30
0
 10
65.02284085225075
 20
-26.8012795677609
 30
0
 10
57.17809505388333
 20
-25.13383199300415
 30
0
 10
57.17809505388333
 20
-25.13383199300415
 30
0
 10
57.04054471886938
 20
-25.10459484773159
 30
0
 10
56.95273955389495
 20
-24.96938685153384
 30
0
 10
56.9819767603009
 20
-24.8318365295143
 30
0
 10
56.9819767603009
 20
-24.8318365295143
 30
0
 10
60.62979981780879
 20
-7.670168302123644
 30
0
 10
60.62979981780879
 20
-7.670168302123644
 30
0
 10
60.77337045242328
 20
-6.994721176642351
 30
0
 10
60.34219902129522
 20
-6.330776196195361
 30
0
 10
59.66675177198174
 20
-6.187206144168837
 30
0
 10
59.66675177198174
 20
-6.187206144168837
 30
0
 10
56.47123826686175
 20
-5.507982058711943
 30
0
 10
56.47123826686175
 20
-5.507982058711943
 30
0
 10
56.33876373720334
 20
-5.479823864072539
 30
0
 10
56.25419866474063
 20
-5.349605281536672
 30
0
 10
56.28235692451858
 20
-5.217130765725161
 30
0
 10
56.28235692451858
 20
-5.217130765725161
 30
0
 10
59.93270040028543
 20
11.95642641843251
 30
0
 10
59.93270040028543
 20
11.95642641843251
 30
0
 10
59.96113205541807
 20
12.09018716135832
 30
0
 10
60.09261496165108
 20
12.17557326698429
 30
0
 10
60.22637570956354
 20
12.14714163530158
 30
0
 10
60.22637570956354
 20
12.14714163530158
 30
0
 10
68.07814897309277
 20
10.47820116549312
 30
0
 10
68.07814897309277
 20
10.47820116549312
 30
0
 10
68.7535848808968
 20
10.33463330082611
 30
0
 10
69.41751868847282
 20
10.76579729825101
 30
0
 10
69.56108696301065
 20
11.44123311893316
 30
0
 10
69.56108696301065
 20
11.44123311893316
 30
0
 10
73.20980189096454
 20
28.60709214831177
 30
0
 10
73.20980189096454
 20
28.60709214831177
 30
0
 10
73.35337278539689
 20
29.28254029463741
 30
0
 10
72.92220110190271
 20
29.94648641684154
 30
0
 10
72.24675296310612
 20
30.0900573466854
 30
0
 10
72.24675296310612
 20
30.0900573466854
 30
0
 10
-4.386620514904498
 20
46.37898325436743
 30
0
 10
-4.386620514904498
 20
46.37898325436743
 30
0
 10
-4.386620514904498
 20
46.37898325436743
 30
0
 10
-4.386620514904498
 20
46.73651957019474
 30
0
 10
-4.386620514904498
 20
46.73651957019474
 30
0
 10
-4.386620514904498
 20
47.56494369840013
 30
0
 10
-5.058190960979774
 20
48.23651414447252
 30
0
 10
-5.886615089182277
 20
48.23651414447252
 30
0
 10
-5.886615089182277
 20
48.23651414447252
 30
0
 10
-22.93662949599833
 20
48.23651414447252
 30
0
 10
-22.93662949599833
 20
48.23651414447252
 30
0
 10
-23.76505362420084
 20
48.23651414447252
 30
0
 10
-24.43662407027611
 20
47.56494369837189
 30
0
 10
-24.43662407027611
 20
46.73651957019474
 30
0
 10
-24.43662407027611
 20
46.73651957019474
 30
0
 10
-24.43662407027611
 20
46.73613199695393
 30
0
 10
-24.43662407027611
 20
46.73613199695393
 30
0
 10
-24.43662407027611
 20
46.73613199695393
 30
0
 10
-61.28630316539143
 20
46.73612937284121
 30
0
 10
-61.28630316539143
 20
46.73612937284121
 30
0
 10
-61.97683634269599
 20
46.73612932366782
 30
0
 10
-62.53662406075112
 20
46.1763415657497
 30
0
 10
-62.53662406075112
 20
45.4858083884445
 30
0
 10
-62.53662406075112
 20
45.4858083884445
 30
0
 10
-62.53662406075112
 20
27.93503346799
 30
0
 10
-62.53662406075112
 20
27.93503346799
 30
0
 10
-62.53662406075112
 20
27.79785980432386
 30
0
 10
-62.6478117953851
 20
27.68665144787404
 30
0
 10
-62.78498545669235
 20
27.6866260088463
 30
0
  0
SPLINE
  5
64
100
AcDbEntity
  8
CASE_LAYER
  6
ByLayer
 62
  256
370
   -1
100
AcDbSpline
210
0
220
0
230
0
 70
   11
 71
    3
 72
   53
 73
   49
 74
    0
 42
1e-007
 43
1e-007
 40
0
 40
0
 40
0
 40
0
 40
1
 40
1
 40
1
 40
2
 40
2
 40
2
 40
3
 40
3
 40
3
 40
4
 40
4
 40
4
 40
5
 40
5
 40
5
 40
6
 40
6
 40
6
 40
7
 40
7
 40
7
 40
8
 40
8
 40
8
 40
9
 40
9
 40
9
 40
10
 40
10
 40
10
 40
11
 40
11
 40
11
 40
12
 40
12
 40
12
 40
13
 40
13
 40
13
 40
14
 40
14
 40
14
 40
15
 40
15
 40
15
 40
16
 40
16
 40
16
 40
16
 10
263.6483323871084
 20
-54.27637153817707
 30
0
 10
264.4767565153106
 20
-54.27637153817707
 30
0
 10
265.1483269613861
 20
-53.60480109210147
 30
0
 10
265.1483269613861
 20
-52.77637696389929
 30
0
 10
265.1483269613861
 20
-52.77637696389929
 30
0
 10
265.1483269613861
 20
-35.72636255708323
 30
0
 10
265.1483269613861
 20
-35.72636255708323
 30
0
 10
265.1483269613861
 20
-34.89793842888105
 30
0
 10
264.4767565153106
 20
-34.22636798280545
 30
0
 10
263.6483323871084
 20
-34.22636798280545
 30
0
 10
263.6483323871084
 20
-34.22636798280545
 30
0
 10
246.3436788841679
 20
-34.22636798280545
 30
0
 10
246.3436788841679
 20
-34.22636798280545
 30
0
 10
246.2081747615038
 20
-34.22636798280545
 30
0
 10
246.0983269661486
 20
-34.11652018745031
 30
0
 10
246.0983269661486
 20
-33.98101606478617
 30
0
 10
246.0983269661486
 20
-33.98101606478617
 30
0
 10
246.0983269661486
 20
-16.67636256184573
 30
0
 10
246.0983269661486
 20
-16.67636256184573
 30
0
 10
246.0983269661486
 20
-15.84793843364355
 30
0
 10
245.426756520073
 20
-15.17636798756795
 30
0
 10
244.5983323918709
 20
-15.17636798756795
 30
0
 10
244.5983323918709
 20
-15.17636798756795
 30
0
 10
227.5483179850548
 20
-15.17636798756795
 30
0
 10
227.5483179850548
 20
-15.17636798756795
 30
0
 10
226.7198938568513
 20
-15.17636798756795
 30
0
 10
226.048323410777
 20
-15.84793843364355
 30
0
 10
226.048323410777
 20
-16.67636256184573
 30
0
 10
226.048323410777
 20
-16.67636256184573
 30
0
 10
226.048323410777
 20
-33.9787632106238
 30
0
 10
226.048323410777
 20
-33.9787632106238
 30
0
 10
226.048323410777
 20
-34.1155115502848
 30
0
 10
225.9374669782564
 20
-34.22636798280545
 30
0
 10
225.8007186385954
 20
-34.22636798280545
 30
0
 10
225.8007186385954
 20
-34.22636798280545
 30
0
 10
208.4983179898173
 20
-34.22636798280545
 30
0
 10
208.4983179898173
 20
-34.22636798280545
 30
0
 10
207.6698938616138
 20
-34.22636798280545
 30
0
 10
206.9983234155395
 20
-34.89793842888105
 30
0
 10
206.9983234155395
 20
-35.72636255708323
 30
0
 10
206.9983234155395
 20
-35.72636255708323
 30
0
 10
206.9983234155395
 20
-52.77637696389929
 30
0
 10
206.9983234155395
 20
-52.77637696389929
 30
0
 10
206.9983234155395
 20
-53.60480109210147
 30
0
 10
207.6698938616138
 20
-54.27637153817707
 30
0
 10
208.4983179898173
 20
-54.27637153817707
 30
0
 10
208.4983179898173
 20
-54.27637153817707
 30
0
 10
263.6483323871084
 20
-54.27637153817707
 30
0
 10
263.6483323871084
 20
-54.27637153817707
 30
0
  0
SPLINE
  5
65
100
AcDbEntity
  8
CASE_LAYER
  6
ByLayer
 62
  256
370
   -1
100
AcDbSpline
210
0
220
0
230
0
 70
   11
 71
    3
 72
   41
 73
   37
 74
    0
 42
1e-007
 43
1e-007
 40
0
 40
0
 40
0
 40
0
 40
1
 40
1
 40
1
 40
2
 40
2
 40
2
 40
3
 40
3
 40
3
 40
4
 40
4
 40
4
 40
5
 40
5
 40
5
 40
6
 40
6
 40
6
 40
7
 40
7
 40
7
 40
8
 40
8
 40
8
 40
9
 40
9
 40
9
 40
10
 40
10
 40
10
 40
11
 40
11
 40
11
 40
12
 40
12
 40
12
 40
12
 10
272.6483243687397
 20
229.8337741210132
 30
0
 10
273.7528938681257
 20
229.8337741210132
 30
0
 10
274.6483243682418
 20
228.9383436208971
 30
0
 10
274.6483243682418
 20
227.8337741215105
 30
0
 10
274.6483243682418
 20
227.8337741215105
 30
0
 10
274.6483243682418
 20
107.4762712211849
 30
0
 10
274.6483243682418
 20
107.4762712211849
 30
0
 10
274.6483243682418
 20
106.3717017217989
 30
0
 10
273.752893868127
 20
105.476271221685
 30
0
 10
272.648324368741
 20
105.476271221685
 30
0
 10
272.648324368741
 20
105.476271221685
 30
0
 10
168.119919558457
 20
105.4762712216854
 30
0
 10
168.119919558457
 20
105.4762712216854
 30
0
 10
168.119919558457
 20
105.4762712216854
 30
0
 10
85.65822943017716
 20
88.47427722132198
 30
0
 10
85.65822943017716
 20
88.47427722132198
 30
0
 10
85.65822943017716
 20
88.47427722132198
 30
0
 10
65.6582294351772
 20
88.47427722132198
 30
0
 10
65.6582294351772
 20
88.47427722132198
 30
0
 10
65.6582294351772
 20
88.47427722132198
 30
0
 10
-16.80346929911652
 20
105.4762712216854
 30
0
 10
-16.80346929911652
 20
105.4762712216854
 30
0
 10
-16.80346929911652
 20
105.4762712216854
 30
0
 10
-82.43912427579833
 20
105.4762712216854
 30
0
 10
-82.43912427579833
 20
105.4762712216854
 30
0
 10
-83.54369377518367
 20
105.4762712216854
 30
0
 10
-84.4391242752982
 20
106.3717017218005
 30
0
 10
-84.4391242752982
 20
107.4762712211849
 30
0
 10
-84.4391242752982
 20
107.4762712211849
 30
0
 10
-84.4391242752982
 20
227.8337741215105
 30
0
 10
-84.4391242752982
 20
227.8337741215105
 30
0
 10
-84.4391242752982
 20
228.9383436208971
 30
0
 10
-83.54369377518367
 20
229.8337741210132
 30
0
 10
-82.43912427579833
 20
229.8337741210132
 30
0
 10
-82.43912427579833
 20
229.8337741210132
 30
0
 10
272.6483243687397
 20
229.8337741210132
 30
0
 10
272.6483243687397
 20
229.8337741210132
 30
0
  0
SPLINE
  5
66
100
AcDbEntity
  8
CASE_LAYER
  6
ByLayer
 62
  256
370
   -1
100
AcDbSpline
210
0
220
0
230
0
 70
   11
 71
    3
 72
   29
 73
   25
 74
    0
 42
1e-007
 43
1e-007
 40
0
 40
0
 40
0
 40
0
 40
1
 40
1
 40
1
 40
2
 40
2
 40
2
 40
3
 40
3
 40
3
 40
4
 40
4
 40
4
 40
5
 40
5
 40
5
 40
6
 40
6
 40
6
 40
7
 40
7
 40
7
 40
8
 40
8
 40
8
 40
8
 10
140.6582307692093
 20
104.5875485399998
 30
0
 10
140.6582307692093
 20
104.5875485399998
 30
0
 10
140.6582280628744
 20
104.5875485399998
 30
0
 10
140.6582280628744
 20
104.5875485399998
 30
0
 10
139.915728809912
 20
104.5875485400101
 30
0
 10
139.3082294214303
 20
105.1950479351542
 30
0
 10
139.3082294218038
 20
105.9375471881166
 30
0
 10
139.3082294218038
 20
105.9375471881166
 30
0
 10
139.3082294218038
 20
105.937549888117
 30
0
 10
139.3082294218038
 20
105.937549888117
 30
0
 10
139.3082294221772
 20
106.6800491471094
 30
0
 10
139.9157288109888
 20
107.2875485410757
 30
0
 10
140.6582280699818
 20
107.2875485413747
 30
0
 10
140.6582280699818
 20
107.2875485413747
 30
0
 10
140.6582308029139
 20
107.2875485413747
 30
0
 10
140.6582308029139
 20
107.2875485413747
 30
0
 10
141.4007300383874
 20
107.2875485416738
 30
0
 10
142.0082294120497
 20
106.6800491616644
 30
0
 10
142.0082294110525
 20
105.9375499261903
 30
0
 10
142.0082294110525
 20
105.9375499261903
 30
0
 10
142.0082294110525
 20
105.937547186924
 30
0
 10
142.0082294110525
 20
105.937547186924
 30
0
 10
142.0082294100553
 20
105.1950479311067
 30
0
 10
141.4007300250259
 20
104.5875485399908
 30
0
 10
140.6582307692093
 20
104.5875485399998
 30
0
  0
SPLINE
  5
67
100
AcDbEntity
  8
CASE_LAYER
  6
ByLayer
 62
  256
370
   -1
100
AcDbSpline
210
0
220
0
230
0
 70
   11
 71
    3
 72
   29
 73
   25
 74
    0
 42
1e-007
 43
1e-007
 40
0
 40
0
 40
0
 40
0
 40
1
 40
1
 40
1
 40
2
 40
2
 40
2
 40
3
 40
3
 40
3
 40
4
 40
4
 40
4
 40
5
 40
5
 40
5
 40
6
 40
6
 40
6
 40
7
 40
7
 40
7
 40
8
 40
8
 40
8
 40
8
 10
269.6483257222722
 20
109.1262712197471
 30
0
 10
269.6483257222722
 20
109.1262712197471
 30
0
 10
269.6483230159373
 20
109.1262712197471
 30
0
 10
269.6483230159373
 20
109.1262712197471
 30
0
 10
268.9058237629749
 20
109.126271219757
 30
0
 10
268.2983243744932
 20
109.7337706149012
 30
0
 10
268.2983243748667
 20
110.4762698678636
 30
0
 10
268.2983243748667
 20
110.4762698678636
 30
0
 10
268.2983243748667
 20
110.4762725678636
 30
0
 10
268.2983243748667
 20
110.4762725678636
 30
0
 10
268.2983243752402
 20
111.218771826857
 30
0
 10
268.905823764053
 20
111.8262712208227
 30
0
 10
269.648323023046
 20
111.826271221122
 30
0
 10
269.648323023046
 20
111.826271221122
 30
0
 10
269.6483257559768
 20
111.826271221122
 30
0
 10
269.6483257559768
 20
111.826271221122
 30
0
 10
270.3908249914516
 20
111.826271221421
 30
0
 10
270.9983243651139
 20
111.218771841412
 30
0
 10
270.9983243641167
 20
110.4762726059375
 30
0
 10
270.9983243641167
 20
110.4762726059375
 30
0
 10
270.9983243641167
 20
110.4762698666716
 30
0
 10
270.9983243641167
 20
110.4762698666716
 30
0
 10
270.9983243631182
 20
109.7337706108543
 30
0
 10
270.3908249780901
 20
109.1262712197384
 30
0
 10
269.6483257222722
 20
109.1262712197471
 30
0
  0
SPLINE
  5
68
100
AcDbEntity
  8
CASE_LAYER
  6
ByLayer
 62
  256
370
   -1
100
AcDbSpline
210
0
220
0
230
0
 70
   11
 71
    3
 72
   29
 73
   25
 74
    0
 42
1e-007
 43
1e-007
 40
0
 40
0
 40
0
 40
0
 40
1
 40
1
 40
1
 40
2
 40
2
 40
2
 40
3
 40
3
 40
3
 40
4
 40
4
 40
4
 40
5
 40
5
 40
5
 40
6
 40
6
 40
6
 40
7
 40
7
 40
7
 40
8
 40
8
 40
8
 40
8
 10
269.6483257222709
 20
223.483774121574
 30
0
 10
269.6483257222709
 20
223.483774121574
 30
0
 10
269.648323015936
 20
223.483774121574
 30
0
 10
269.648323015936
 20
223.483774121574
 30
0
 10
268.9058237629736
 20
223.4837741215846
 30
0
 10
268.2983243744919
 20
224.0912735167275
 30
0
 10
268.2983243748654
 20
224.8337727696908
 30
0
 10
268.2983243748654
 20
224.8337727696908
 30
0
 10
268.2983243748654
 20
224.8337754696896
 30
0
 10
268.2983243748654
 20
224.8337754696896
 30
0
 10
268.2983243752388
 20
225.5762747286852
 30
0
 10
268.9058237640517
 20
226.1837741226499
 30
0
 10
269.6483230230448
 20
226.1837741229499
 30
0
 10
269.6483230230448
 20
226.1837741229499
 30
0
 10
269.6483257559755
 20
226.1837741229499
 30
0
 10
269.6483257559755
 20
226.1837741229499
 30
0
 10
270.3908249914503
 20
226.1837741232496
 30
0
 10
270.9983243651126
 20
225.5762747432406
 30
0
 10
270.9983243641154
 20
224.8337755077648
 30
0
 10
270.9983243641154
 20
224.8337755077648
 30
0
 10
270.9983243641154
 20
224.8337727684979
 30
0
 10
270.9983243641154
 20
224.8337727684979
 30
0
 10
270.9983243631169
 20
224.0912735126813
 30
0
 10
270.3908249780889
 20
223.483774121567
 30
0
 10
269.6483257222709
 20
223.483774121574
 30
0
  0
SPLINE
  5
69
100
AcDbEntity
  8
CASE_LAYER
  6
ByLayer
 62
  256
370
   -1
100
AcDbSpline
210
0
220
0
230
0
 70
   11
 71
    3
 72
   29
 73
   25
 74
    0
 42
1e-007
 43
1e-007
 40
0
 40
0
 40
0
 40
0
 40
1
 40
1
 40
1
 40
2
 40
2
 40
2
 40
3
 40
3
 40
3
 40
4
 40
4
 40
4
 40
5
 40
5
 40
5
 40
6
 40
6
 40
6
 40
7
 40
7
 40
7
 40
8
 40
8
 40
8
 40
8
 10
140.6582307692093
 20
223.483774121574
 30
0
 10
140.6582307692093
 20
223.483774121574
 30
0
 10
140.6582280628744
 20
223.483774121574
 30
0
 10
140.6582280628744
 20
223.483774121574
 30
0
 10
139.915728809912
 20
223.4837741215846
 30
0
 10
139.3082294214303
 20
224.0912735167275
 30
0
 10
139.3082294218038
 20
224.8337727696908
 30
0
 10
139.3082294218038
 20
224.8337727696908
 30
0
 10
139.3082294218038
 20
224.8337754696896
 30
0
 10
139.3082294218038
 20
224.8337754696896
 30
0
 10
139.3082294221772
 20
225.5762747286852
 30
0
 10
139.9157288109901
 20
226.1837741226499
 30
0
 10
140.6582280699831
 20
226.1837741229499
 30
0
 10
140.6582280699831
 20
226.1837741229499
 30
0
 10
140.6582308029139
 20
226.1837741229499
 30
0
 10
140.6582308029139
 20
226.1837741229499
 30
0
 10
141.4007300383887
 20
226.1837741232496
 30
0
 10
142.008229412051
 20
225.5762747432406
 30
0
 10
142.0082294110538
 20
224.8337755077648
 30
0
 10
142.0082294110538
 20
224.8337755077648
 30
0
 10
142.0082294110538
 20
224.8337727684979
 30
0
 10
142.0082294110538
 20
224.8337727684979
 30
0
 10
142.0082294100553
 20
224.0912735126813
 30
0
 10
141.4007300250272
 20
223.483774121567
 30
0
 10
140.6582307692093
 20
223.483774121574
 30
0
  0
SPLINE
  5
6A
100
AcDbEntity
  8
CASE_LAYER
  6
ByLayer
 62
  256
370
   -1
100
AcDbSpline
210
0
220
0
230
0
 70
   11
 71
    3
 72
   29
 73
   25
 74
    0
 42
1e-007
 43
1e-007
 40
0
 40
0
 40
0
 40
0
 40
1
 40
1
 40
1
 40
2
 40
2
 40
2
 40
3
 40
3
 40
3
 40
4
 40
4
 40
4
 40
5
 40
5
 40
5
 40
6
 40
6
 40
6
 40
7
 40
7
 40
7
 40
8
 40
8
 40
8
 40
8
 10
8.095877044826736
 20
223.483774121574
 30
0
 10
8.095877044826736
 20
223.483774121574
 30
0
 10
8.095874338491518
 20
223.483774121574
 30
0
 10
8.095874338491518
 20
223.483774121574
 30
0
 10
7.353375085529143
 20
223.4837741215846
 30
0
 10
6.745875697047427
 20
224.0912735167275
 30
0
 10
6.745875697420896
 20
224.8337727696908
 30
0
 10
6.745875697420896
 20
224.8337727696908
 30
0
 10
6.745875697420896
 20
224.8337754696896
 30
0
 10
6.745875697420896
 20
224.8337754696896
 30
0
 10
6.745875697794364
 20
225.5762747286852
 30
0
 10
7.353375086607198
 20
226.1837741226499
 30
0
 10
8.09587434560026
 20
226.1837741229499
 30
0
 10
8.09587434560026
 20
226.1837741229499
 30
0
 10
8.095877078531016
 20
226.1837741229499
 30
0
 10
8.095877078531016
 20
226.1837741229499
 30
0
 10
8.83837631400581
 20
226.1837741232496
 30
0
 10
9.445875687668128
 20
225.5762747432373
 30
0
 10
9.445875686670927
 20
224.8337755077648
 30
0
 10
9.445875686670927
 20
224.8337755077648
 30
0
 10
9.445875686670927
 20
224.8337727684979
 30
0
 10
9.445875686670927
 20
224.8337727684979
 30
0
 10
9.445875685672444
 20
224.0912735126813
 30
0
 10
8.838376300644352
 20
223.4837741215634
 30
0
 10
8.095877044826736
 20
223.483774121574
 30
0
  0
SPLINE
  5
6B
100
AcDbEntity
  8
CASE_LAYER
  6
ByLayer
 62
  256
370
   -1
100
AcDbSpline
210
0
220
0
230
0
 70
   11
 71
    3
 72
   29
 73
   25
 74
    0
 42
1e-007
 43
1e-007
 40
0
 40
0
 40
0
 40
0
 40
1
 40
1
 40
1
 40
2
 40
2
 40
2
 40
3
 40
3
 40
3
 40
4
 40
4
 40
4
 40
5
 40
5
 40
5
 40
6
 40
6
 40
6
 40
7
 40
7
 40
7
 40
8
 40
8
 40
8
 40
8
 10
-79.43912292376754
 20
223.483774121574
 30
0
 10
-79.43912292376754
 20
223.483774121574
 30
0
 10
-79.43912563010244
 20
223.483774121574
 30
0
 10
-79.43912563010244
 20
223.483774121574
 30
0
 10
-80.18162488306481
 20
223.4837741215846
 30
0
 10
-80.78912427154653
 20
224.0912735167275
 30
0
 10
-80.78912427117307
 20
224.8337727696908
 30
0
 10
-80.78912427117307
 20
224.8337727696908
 30
0
 10
-80.78912427117307
 20
224.8337754696896
 30
0
 10
-80.78912427117307
 20
224.8337754696896
 30
0
 10
-80.78912427079959
 20
225.5762747286852
 30
0
 10
-80.18162488198676
 20
226.1837741226499
 30
0
 10
-79.4391256229937
 20
226.1837741229499
 30
0
 10
-79.4391256229937
 20
226.1837741229499
 30
0
 10
-79.43912289006295
 20
226.1837741229499
 30
0
 10
-79.43912289006295
 20
226.1837741229499
 30
0
 10
-78.69662365458815
 20
226.1837741232496
 30
0
 10
-78.08912428092583
 20
225.5762747432406
 30
0
 10
-78.08912428192303
 20
224.8337755077648
 30
0
 10
-78.08912428192303
 20
224.8337755077648
 30
0
 10
-78.08912428192303
 20
224.8337727684979
 30
0
 10
-78.08912428192303
 20
224.8337727684979
 30
0
 10
-78.08912428292152
 20
224.0912735126813
 30
0
 10
-78.69662366794961
 20
223.483774121567
 30
0
 10
-79.43912292376754
 20
223.483774121574
 30
0
  0
SPLINE
  5
6C
100
AcDbEntity
  8
CASE_LAYER
  6
ByLayer
 62
  256
370
   -1
100
AcDbSpline
210
0
220
0
230
0
 70
   11
 71
    3
 72
   29
 73
   25
 74
    0
 42
1e-007
 43
1e-007
 40
0
 40
0
 40
0
 40
0
 40
1
 40
1
 40
1
 40
2
 40
2
 40
2
 40
3
 40
3
 40
3
 40
4
 40
4
 40
4
 40
5
 40
5
 40
5
 40
6
 40
6
 40
6
 40
7
 40
7
 40
7
 40
8
 40
8
 40
8
 40
8
 10
-79.43912292376754
 20
109.126271219748
 30
0
 10
-79.43912292376754
 20
109.126271219748
 30
0
 10
-79.43912563010244
 20
109.126271219748
 30
0
 10
-79.43912563010244
 20
109.126271219748
 30
0
 10
-80.18162488306481
 20
109.1262712197573
 30
0
 10
-80.78912427154653
 20
109.7337706149018
 30
0
 10
-80.78912427117307
 20
110.4762698678642
 30
0
 10
-80.78912427117307
 20
110.4762698678642
 30
0
 10
-80.78912427117307
 20
110.4762725678642
 30
0
 10
-80.78912427117307
 20
110.4762725678642
 30
0
 10
-80.78912427079959
 20
111.2187718268573
 30
0
 10
-80.18162488198676
 20
111.8262712208236
 30
0
 10
-79.4391256229937
 20
111.8262712211233
 30
0
 10
-79.4391256229937
 20
111.8262712211233
 30
0
 10
-79.43912289006295
 20
111.8262712211233
 30
0
 10
-79.43912289006295
 20
111.8262712211233
 30
0
 10
-78.69662365458815
 20
111.8262712214217
 30
0
 10
-78.08912428092583
 20
111.2187718414123
 30
0
 10
-78.08912428192303
 20
110.4762726059382
 30
0
 10
-78.08912428192303
 20
110.4762726059382
 30
0
 10
-78.08912428192303
 20
110.4762698666719
 30
0
 10
-78.08912428192303
 20
110.4762698666719
 30
0
 10
-78.08912428292152
 20
109.7337706108546
 30
0
 10
-78.69662366794961
 20
109.1262712197387
 30
0
 10
-79.43912292376754
 20
109.126271219748
 30
0
  0
SPLINE
  5
6D
100
AcDbEntity
  8
CASE_LAYER
  6
ByLayer
 62
  256
370
   -1
100
AcDbSpline
210
0
220
0
230
0
 70
   11
 71
    3
 72
   29
 73
   25
 74
    0
 42
1e-007
 43
1e-007
 40
0
 40
0
 40
0
 40
0
 40
1
 40
1
 40
1
 40
2
 40
2
 40
2
 40
3
 40
3
 40
3
 40
4
 40
4
 40
4
 40
5
 40
5
 40
5
 40
6
 40
6
 40
6
 40
7
 40
7
 40
7
 40
8
 40
8
 40
8
 40
8
 10
10.65823080170771
 20
104.5875485400005
 30
0
 10
10.65823080170771
 20
104.5875485400005
 30
0
 10
10.65822809537281
 20
104.5875485400005
 30
0
 10
10.65822809537281
 20
104.5875485400005
 30
0
 10
9.915728842410433
 20
104.5875485400101
 30
0
 10
9.308229453928718
 20
105.1950479351546
 30
0
 10
9.308229454302186
 20
105.9375471881169
 30
0
 10
9.308229454302186
 20
105.9375471881169
 30
0
 10
9.308229454302186
 20
105.937549888117
 30
0
 10
9.308229454302186
 20
105.937549888117
 30
0
 10
9.308229454675654
 20
106.68004914711
 30
0
 10
9.915728843488488
 20
107.2875485410764
 30
0
 10
10.65822810248155
 20
107.2875485413757
 30
0
 10
10.65822810248155
 20
107.2875485413757
 30
0
 10
10.65823083541231
 20
107.2875485413757
 30
0
 10
10.65823083541231
 20
107.2875485413757
 30
0
 10
11.4007300708871
 20
107.2875485416747
 30
0
 10
12.00822944454942
 20
106.6800491616651
 30
0
 10
12.00822944355222
 20
105.9375499261909
 30
0
 10
12.00822944355222
 20
105.9375499261909
 30
0
 10
12.00822944355222
 20
105.9375471869247
 30
0
 10
12.00822944355222
 20
105.9375471869247
 30
0
 10
12.00822944255373
 20
105.195047931108
 30
0
 10
11.40073005752564
 20
104.5875485399915
 30
0
 10
10.65823080170771
 20
104.5875485400005
 30
0
  0
SPLINE
  5
6E
100
AcDbEntity
  8
CASE_LAYER
  6
ByLayer
 62
  256
370
   -1
100
AcDbSpline
210
0
220
0
230
0
 70
   11
 71
    3
 72
   77
 73
   73
 74
    0
 42
1e-007
 43
1e-007
 40
0
 40
0
 40
0
 40
0
 40
1
 40
1
 40
1
 40
2
 40
2
 40
2
 40
3
 40
3
 40
3
 40
4
 40
4
 40
4
 40
5
 40
5
 40
5
 40
6
 40
6
 40
6
 40
7
 40
7
 40
7
 40
8
 40
8
 40
8
 40
9
 40
9
 40
9
 40
10
 40
10
 40
10
 40
11
 40
11
 40
11
 40
12
 40
12
 40
12
 40
13
 40
13
 40
13
 40
14
 40
14
 40
14
 40
15
 40
15
 40
15
 40
16
 40
16
 40
16
 40
17
 40
17
 40
17
 40
18
 40
18
 40
18
 40
19
 40
19
 40
19
 40
20
 40
20
 40
20
 40
21
 40
21
 40
21
 40
22
 40
22
 40
22
 40
23
 40
23
 40
23
 40
24
 40
24
 40
24
 40
24
 10
245.0983234060145
 20
164.1012641430095
 30
0
 10
245.0983234060145
 20
163.2728281230958
 30
0
 10
245.7699034922257
 20
162.6012480368871
 30
0
 10
246.5983395121391
 20
162.6012480368871
 30
0
 10
246.5983395121391
 20
162.6012480368871
 30
0
 10
263.6483108552616
 20
162.6012480368871
 30
0
 10
263.6483108552616
 20
162.6012480368871
 30
0
 10
264.476746875175
 20
162.6012480368871
 30
0
 10
265.1483269613861
 20
163.2728281230958
 30
0
 10
265.1483269613861
 20
164.1012641430095
 30
0
 10
265.1483269613861
 20
164.1012641430095
 30
0
 10
265.1483269613861
 20
181.1511834183167
 30
0
 10
265.1483269613861
 20
181.1511834183167
 30
0
 10
265.1483269613861
 20
181.9796194524717
 30
0
 10
264.4767684202664
 20
182.6512109446991
 30
0
 10
263.6483323871084
 20
182.6512515922556
 30
0
 10
263.6483323871084
 20
182.6512515922556
 30
0
 10
261.1244867501923
 20
182.6513754257929
 30
0
 10
261.1244867501923
 20
182.6513754257929
 30
0
 10
260.9885571411077
 20
182.6513820952367
 30
0
 10
260.8783679577336
 20
182.7615766852223
 30
0
 10
260.8783679577336
 20
182.8975062944702
 30
0
 10
260.8783679577336
 20
182.8975062944702
 30
0
 10
260.8783679577336
 20
200.2012570132153
 30
0
 10
260.8783679577336
 20
200.2012570132153
 30
0
 10
260.8783679577336
 20
201.0296636144927
 30
0
 10
260.2068248647264
 20
201.7012268003029
 30
0
 10
259.3784182638224
 20
201.7012515861526
 30
0
 10
259.3784182638224
 20
201.7012515861526
 30
0
 10
256.9561586714632
 20
201.7013240599267
 30
0
 10
256.9561586714632
 20
201.7013240599267
 30
0
 10
256.8179581520938
 20
201.7013281948739
 30
0
 10
256.7059266881604
 20
201.8133630108301
 30
0
 10
256.7059266881604
 20
201.9515635302585
 30
0
 10
256.7059266881604
 20
201.9515635302585
 30
0
 10
256.7059266881604
 20
219.2512570084528
 30
0
 10
256.7059266881604
 20
219.2512570084528
 30
0
 10
256.7059266881604
 20
220.0796930283662
 30
0
 10
256.0343466019492
 20
220.7512731145786
 30
0
 10
255.2059105820358
 20
220.7512731145786
 30
0
 10
255.2059105820358
 20
220.7512731145786
 30
0
 10
238.1559392389133
 20
220.7512731145786
 30
0
 10
238.1559392389133
 20
220.7512731145786
 30
0
 10
237.3275032189999
 20
220.7512731145786
 30
0
 10
236.6559231327888
 20
220.0796930283662
 30
0
 10
236.6559231327888
 20
219.2512570084528
 30
0
 10
236.6559231327888
 20
219.2512570084528
 30
0
 10
236.6559231327888
 20
202.2012641334845
 30
0
 10
236.6559231327888
 20
202.2012641334845
 30
0
 10
236.6559231327888
 20
201.3727265922331
 30
0
 10
237.3276705994424
 20
200.7011091844676
 30
0
 10
238.1562081251605
 20
200.7012696154394
 30
0
 10
238.1562081251605
 20
200.7012696154394
 30
0
 10
240.5825448042327
 20
200.7017394306843
 30
0
 10
240.5825448042327
 20
200.7017394306843
 30
0
 10
240.7183114103005
 20
200.7017657193777
 30
0
 10
240.8283859342087
 20
200.5917125073017
 30
0
 10
240.8283859342087
 20
200.4559458986873
 30
0
 10
240.8283859342087
 20
200.4559458986873
 30
0
 10
240.8283859342087
 20
183.1510092191726
 30
0
 10
240.8283859342087
 20
183.1510092191726
 30
0
 10
240.8283859342087
 20
182.3226228393894
 30
0
 10
241.4999941387311
 20
181.6511191317635
 30
0
 10
242.3283805084865
 20
181.6512480321247
 30
0
 10
242.3283805084865
 20
181.6512480321247
 30
0
 10
244.8486680707892
 20
181.6516401993367
 30
0
 10
244.8486680707892
 20
181.6516401993367
 30
0
 10
244.9865426207263
 20
181.6516616531894
 30
0
 10
245.0983234060145
 20
181.5398982601017
 30
0
 10
245.0983234060145
 20
181.4020237084968
 30
0
 10
245.0983234060145
 20
181.4020237084968
 30
0
 10
245.0983234060145
 20
164.1012641430095
 30
0
 10
245.0983234060145
 20
164.1012641430095
 30
0
  0
SPLINE
  5
6F
100
AcDbEntity
  8
CASE_LAYER
  6
ByLayer
 62
  256
370
   -1
100
AcDbSpline
210
0
220
0
230
0
 70
   11
 71
    3
 72
  149
 73
  145
 74
    0
 42
1e-007
 43
1e-007
 40
0
 40
0
 40
0
 40
0
 40
1
 40
1
 40
1
 40
2
 40
2
 40
2
 40
3
 40
3
 40
3
 40
4
 40
4
 40
4
 40
5
 40
5
 40
5
 40
6
 40
6
 40
6
 40
7
 40
7
 40
7
 40
8
 40
8
 40
8
 40
9
 40
9
 40
9
 40
10
 40
10
 40
10
 40
11
 40
11
 40
11
 40
12
 40
12
 40
12
 40
13
 40
13
 40
13
 40
14
 40
14
 40
14
 40
15
 40
15
 40
15
 40
16
 40
16
 40
16
 40
17
 40
17
 40
17
 40
18
 40
18
 40
18
 40
19
 40
19
 40
19
 40
20
 40
20
 40
20
 40
21
 40
21
 40
21
 40
22
 40
22
 40
22
 40
23
 40
23
 40
23
 40
24
 40
24
 40
24
 40
25
 40
25
 40
25
 40
26
 40
26
 40
26
 40
27
 40
27
 40
27
 40
28
 40
28
 40
28
 40
29
 40
29
 40
29
 40
30
 40
30
 40
30
 40
31
 40
31
 40
31
 40
32
 40
32
 40
32
 40
33
 40
33
 40
33
 40
34
 40
34
 40
34
 40
35
 40
35
 40
35
 40
36
 40
36
 40
36
 40
37
 40
37
 40
37
 40
38
 40
38
 40
38
 40
39
 40
39
 40
39
 40
40
 40
40
 40
40
 40
41
 40
41
 40
41
 40
42
 40
42
 40
42
 40
43
 40
43
 40
43
 40
44
 40
44
 40
44
 40
45
 40
45
 40
45
 40
46
 40
46
 40
46
 40
47
 40
47
 40
47
 40
48
 40
48
 40
48
 40
48
 10
167.2457342208095
 20
119.6854355282914
 30
0
 10
168.0560591152702
 20
119.8576750768498
 30
0
 10
168.5733290473706
 20
120.6542014687941
 30
0
 10
168.4010883691492
 20
121.4645261231371
 30
0
 10
168.4010883691492
 20
121.4645261231371
 30
0
 10
164.783587957244
 20
138.4834429153253
 30
0
 10
164.783587957244
 20
138.4834429153253
 30
0
 10
164.7501649685767
 20
138.6406849328261
 30
0
 10
164.8700814232291
 20
138.7887695746855
 30
0
 10
165.0308363554676
 20
138.7887695746855
 30
0
 10
165.0308363554676
 20
138.7887695746855
 30
0
 10
189.4481457398055
 20
138.7887695746855
 30
0
 10
189.4481457398055
 20
138.7887695746855
 30
0
 10
189.4481457398055
 20
138.7887695746855
 30
0
 10
192.1815921570367
 20
138.7887695746855
 30
0
 10
192.1815921570367
 20
138.7887695746855
 30
0
 10
192.1815921570367
 20
138.7887695746855
 30
0
 10
220.786133843679
 20
138.7887695746855
 30
0
 10
220.786133843679
 20
138.7887695746855
 30
0
 10
221.6145698635923
 20
138.7887695746855
 30
0
 10
222.2861499498035
 20
139.4603496608966
 30
0
 10
222.2861499498035
 20
140.28878568081
 30
0
 10
222.2861499498035
 20
140.28878568081
 30
0
 10
222.2861499498035
 20
157.5904462576367
 30
0
 10
222.2861499498035
 20
157.5904462576367
 30
0
 10
222.2861499498035
 20
157.7280635960075
 30
0
 10
222.3977127966296
 20
157.8396234595167
 30
0
 10
222.5353301349503
 20
157.8396197794195
 30
0
 10
222.5353301349503
 20
157.8396197794195
 30
0
 10
239.8355984948666
 20
157.8391571442357
 30
0
 10
239.8355984948666
 20
157.8391571442357
 30
0
 10
240.6640382872735
 20
157.839134990511
 30
0
 10
241.3356331807182
 20
158.5107119247389
 30
0
 10
241.3356331807182
 20
159.3391517174412
 30
0
 10
241.3356331807182
 20
159.3391517174412
 30
0
 10
241.3356331807182
 20
176.3891661242576
 30
0
 10
241.3356331807182
 20
176.3891661242576
 30
0
 10
241.3356331807182
 20
177.2175690786384
 30
0
 10
240.6640957790386
 20
177.8891307536888
 30
0
 10
239.8356928251991
 20
177.8891606965776
 30
0
 10
239.8356928251991
 20
177.8891606965776
 30
0
 10
237.311233016419
 20
177.8892519439783
 30
0
 10
237.311233016419
 20
177.8892519439783
 30
0
 10
237.1757202050562
 20
177.8892568421322
 30
0
 10
237.0658679636867
 20
177.9991130542173
 30
0
 10
237.0658679636867
 20
178.1346258656687
 30
0
 10
237.0658679636867
 20
178.1346258656687
 30
0
 10
237.0658679636867
 20
195.438524092243
 30
0
 10
237.0658679636867
 20
195.438524092243
 30
0
 10
237.0658679636867
 20
196.2669893862776
 30
0
 10
236.3943386715262
 20
196.9386325943968
 30
0
 10
235.5658733894089
 20
196.9387731205317
 30
0
 10
235.5658733894089
 20
196.9387731205317
 30
0
 10
233.144713349668
 20
196.9391838031094
 30
0
 10
233.144713349668
 20
196.9391838031094
 30
0
 10
233.005900883055
 20
196.9392073487929
 30
0
 10
232.8933836304199
 20
197.0517436884723
 30
0
 10
232.8933836304199
 20
197.1905561570832
 30
0
 10
232.8933836304199
 20
197.1905561570832
 30
0
 10
232.8933836304199
 20
214.4887785414915
 30
0
 10
232.8933836304199
 20
214.4887785414915
 30
0
 10
232.8933836304199
 20
215.317202669693
 30
0
 10
232.2218131843443
 20
215.9887731157692
 30
0
 10
231.3933890561422
 20
215.9887731157692
 30
0
 10
231.3933890561422
 20
215.9887731157692
 30
0
 10
175.7433836447074
 20
215.9887731157692
 30
0
 10
175.7433836447074
 20
215.9887731157692
 30
0
 10
175.7433836447074
 20
215.9887731157692
 30
0
 10
175.7433836447074
 20
215.9891606890107
 30
0
 10
175.7433836447074
 20
215.9891606890107
 30
0
 10
175.7433836447074
 20
216.8175848171875
 30
0
 10
175.0718131986318
 20
217.4891552632885
 30
0
 10
174.2433890704297
 20
217.4891552632885
 30
0
 10
174.2433890704297
 20
217.4891552632885
 30
0
 10
157.1933746636136
 20
217.4891552632885
 30
0
 10
157.1933746636136
 20
217.4891552632885
 30
0
 10
156.3649505354101
 20
217.4891552632885
 30
0
 10
155.6933800893358
 20
216.8175848172158
 30
0
 10
155.6933800893358
 20
215.9891606890107
 30
0
 10
155.6933800893358
 20
215.9891606890107
 30
0
 10
155.6933800893358
 20
215.6302248031438
 30
0
 10
155.6933800893358
 20
215.6302248031438
 30
0
 10
155.6933800893358
 20
215.6302248031438
 30
0
 10
79.31421111446791
 20
199.395340989263
 30
0
 10
79.31421111446791
 20
199.395340989263
 30
0
 10
78.50388672023857
 20
199.2231013253829
 30
0
 10
77.98661720135389
 20
198.426575348212
 30
0
 10
78.15885777663394
 20
197.6162511477061
 30
0
 10
78.15885777663394
 20
197.6162511477061
 30
0
 10
81.75657310665086
 20
180.6904147487109
 30
0
 10
81.75657310665086
 20
180.6904147487109
 30
0
 10
81.7848273011722
 20
180.557489869952
 30
0
 10
81.69997481551373
 20
180.4268284518777
 30
0
 10
81.56704988962562
 20
180.3985744790733
 30
0
 10
81.56704988962562
 20
180.3985744790733
 30
0
 10
73.95799446930677
 20
178.7812251107482
 30
0
 10
73.95799446930677
 20
178.7812251107482
 30
0
 10
73.14766918905984
 20
178.6089857186374
 30
0
 10
72.63039865027667
 20
177.812459340923
 30
0
 10
72.80263874687618
 20
177.0021342104207
 30
0
 10
72.80263874687618
 20
177.0021342104207
 30
0
 10
76.34753424329926
 20
160.32472887636
 30
0
 10
76.34753424329926
 20
160.32472887636
 30
0
 10
76.51977423184437
 20
159.5144042542142
 30
0
 10
77.31629977561852
 20
158.9971340778607
 30
0
 10
78.12662460199878
 20
159.1693731055591
 30
0
 10
78.12662460199878
 20
159.1693731055591
 30
0
 10
81.07702400883782
 20
159.7964968325047
 30
0
 10
81.07702400883782
 20
159.7964968325047
 30
0
 10
81.20999845676612
 20
159.8247612875395
 30
0
 10
81.34070843204216
 20
159.739877131835
 30
0
 10
81.36897299746724
 20
159.6069027073736
 30
0
 10
81.36897299746724
 20
159.6069027073736
 30
0
 10
84.96664636949579
 20
142.6811676450008
 30
0
 10
84.96664636949579
 20
142.6811676450008
 30
0
 10
85.13888589690697
 20
141.8708437754403
 30
0
 10
85.93541008331952
 20
141.3535735235419
 30
0
 10
86.74573432573571
 20
141.5258112967907
 30
0
 10
86.74573432573571
 20
141.5258112967907
 30
0
 10
89.69537393005662
 20
142.1527694090385
 30
0
 10
89.69537393005662
 20
142.1527694090385
 30
0
 10
89.82877577584199
 20
142.1811245237725
 30
0
 10
89.95990577492911
 20
142.0959675820822
 30
0
 10
89.98826132930071
 20
141.9625658297439
 30
0
 10
89.98826132930071
 20
141.9625658297439
 30
0
 10
93.63774647785354
 20
124.7931708119975
 30
0
 10
93.63774647785354
 20
124.7931708119975
 30
0
 10
93.66646200148682
 20
124.6580755455842
 30
0
 10
93.58022410680186
 20
124.5252806834467
 30
0
 10
93.44512881367719
 20
124.4965652854757
 30
0
 10
93.44512881367719
 20
124.4965652854757
 30
0
 10
85.8401272216479
 20
122.8800719033888
 30
0
 10
85.8401272216479
 20
122.8800719033888
 30
0
 10
85.02980276545098
 20
122.7078320813543
 30
0
 10
84.51253301566373
 20
121.9113062956702
 30
0
 10
84.68477296326201
 20
121.1009818661625
 30
0
 10
84.68477296326201
 20
121.1009818661625
 30
0
 10
88.22967230239456
 20
104.4235584535934
 30
0
 10
88.22967230239456
 20
104.4235584535934
 30
0
 10
88.40190982686924
 20
103.6132454239727
 30
0
 10
89.19842432085288
 20
103.0959829360365
 30
0
 10
90.00873739877997
 20
103.2682202332509
 30
0
 10
90.00873739877997
 20
103.2682202332509
 30
0
 10
167.2457342208095
 20
119.6854355282914
 30
0
 10
167.2457342208095
 20
119.6854355282914
 30
0
  0
SPLINE
  5
70
100
AcDbEntity
  8
CASE_LAYER
  6
ByLayer
 62
  256
370
   -1
100
AcDbSpline
210
0
220
0
230
0
 70
   11
 71
    3
 72
  155
 73
  151
 74
    0
 42
1e-007
 43
1e-007
 40
0
 40
0
 40
0
 40
0
 40
1
 40
1
 40
1
 40
2
 40
2
 40
2
 40
3
 40
3
 40
3
 40
4
 40
4
 40
4
 40
5
 40
5
 40
5
 40
6
 40
6
 40
6
 40
7
 40
7
 40
7
 40
8
 40
8
 40
8
 40
9
 40
9
 40
9
 40
10
 40
10
 40
10
 40
11
 40
11
 40
11
 40
12
 40
12
 40
12
 40
13
 40
13
 40
13
 40
14
 40
14
 40
14
 40
15
 40
15
 40
15
 40
16
 40
16
 40
16
 40
17
 40
17
 40
17
 40
18
 40
18
 40
18
 40
19
 40
19
 40
19
 40
20
 40
20
 40
20
 40
21
 40
21
 40
21
 40
22
 40
22
 40
22
 40
23
 40
23
 40
23
 40
24
 40
24
 40
24
 40
25
 40
25
 40
25
 40
26
 40
26
 40
26
 40
27
 40
27
 40
27
 40
28
 40
28
 40
28
 40
29
 40
29
 40
29
 40
30
 40
30
 40
30
 40
31
 40
31
 40
31
 40
32
 40
32
 40
32
 40
33
 40
33
 40
33
 40
34
 40
34
 40
34
 40
35
 40
35
 40
35
 40
36
 40
36
 40
36
 40
37
 40
37
 40
37
 40
38
 40
38
 40
38
 40
39
 40
39
 40
39
 40
40
 40
40
 40
40
 40
41
 40
41
 40
41
 40
42
 40
42
 40
42
 40
43
 40
43
 40
43
 40
44
 40
44
 40
44
 40
45
 40
45
 40
45
 40
46
 40
46
 40
46
 40
47
 40
47
 40
47
 40
48
 40
48
 40
48
 40
49
 40
49
 40
49
 40
50
 40
50
 40
50
 40
50
 10
-62.78498545669235
 20
196.9392671276613
 30
0
 10
-62.78498545669235
 20
196.9392671276613
 30
0
 10
-65.44879665248919
 20
196.9387731205317
 30
0
 10
-65.44879665248919
 20
196.9387731205317
 30
0
 10
-66.13936735844199
 20
196.9386450533298
 30
0
 10
-66.69911761711035
 20
196.3787909786471
 30
0
 10
-66.69911761711035
 20
195.6882202608194
 30
0
 10
-66.69911761711035
 20
195.6882202608194
 30
0
 10
-66.69911761711035
 20
178.1439413327798
 30
0
 10
-66.69911761711035
 20
178.1439413327798
 30
0
 10
-66.69911761711035
 20
178.0031543466094
 30
0
 10
-66.81324118549891
 20
177.8890203319511
 30
0
 10
-66.9540281710796
 20
177.8890074456459
 30
0
 10
-66.9540281710796
 20
177.8890074456459
 30
0
 10
-69.51405238877788
 20
177.8887731252943
 30
0
 10
-69.51405238877788
 20
177.8887731252943
 30
0
 10
-70.20460410143311
 20
177.8887099187349
 30
0
 10
-70.76437335339904
 20
177.3288894284547
 30
0
 10
-70.76437335339904
 20
176.6383377129063
 30
0
 10
-70.76437335339904
 20
176.6383377129063
 30
0
 10
-70.76437335339904
 20
159.0866935186357
 30
0
 10
-70.76437335339904
 20
159.0866935186357
 30
0
 10
-70.76437335339904
 20
158.9502163314642
 30
0
 10
-70.87499831867362
 20
158.8395735513136
 30
0
 10
-71.01147550407724
 20
158.8395515750081
 30
0
 10
-71.01147550407724
 20
158.8395515750081
 30
0
 10
-73.43886557413883
 20
158.8391607032979
 30
0
 10
-73.43886557413883
 20
158.8391607032979
 30
0
 10
-74.26730337910783
 20
158.8391607032979
 30
0
 10
-74.93886014841661
 20
158.1675824021449
 30
0
 10
-74.93886014841661
 20
157.3391661290201
 30
0
 10
-74.93886014841661
 20
157.3391661290201
 30
0
 10
-74.92912775367078
 20
121.2387641537257
 30
0
 10
-74.92912775367078
 20
121.2387641537257
 30
0
 10
-74.92912775367078
 20
120.4103478806032
 30
0
 10
-74.25754945251489
 20
119.738769579448
 30
0
 10
-73.42911164754655
 20
119.738769579448
 30
0
 10
-73.42911164754655
 20
119.738769579448
 30
0
 10
-46.60444516530189
 20
119.738769579448
 30
0
 10
-46.60444516530189
 20
119.738769579448
 30
0
 10
-45.91391196414762
 20
119.738769579448
 30
0
 10
-45.35412420068042
 20
120.2985573429152
 30
0
 10
-45.35412420068042
 20
120.9890905440694
 30
0
 10
-45.35412420068042
 20
120.9890905440694
 30
0
 10
-45.35412420068042
 20
138.5375170239818
 30
0
 10
-45.35412420068042
 20
138.5375170239818
 30
0
 10
-45.35412420068042
 20
138.676493533129
 30
0
 10
-45.24146058589021
 20
138.7891557813338
 30
0
 10
-45.1024840767533
 20
138.789154095569
 30
0
 10
-45.1024840767533
 20
138.789154095569
 30
0
 10
-13.71285842185085
 20
138.7887733439419
 30
0
 10
-13.71285842185085
 20
138.7887733439419
 30
0
 10
-13.55282667827904
 20
138.7887714027801
 30
0
 10
-13.43345078151042
 20
138.6413525838762
 30
0
 10
-13.46672328858549
 20
138.4848179256458
 30
0
 10
-13.46672328858549
 20
138.4848179256458
 30
0
 10
-17.13654971769872
 20
121.2196619050325
 30
0
 10
-17.13654971769872
 20
121.2196619050325
 30
0
 10
-17.28012053008856
 20
120.5442151165263
 30
0
 10
-16.84894973475078
 20
119.8802702030576
 30
0
 10
-16.17350290114276
 20
119.7366996028577
 30
0
 10
-16.17350290114276
 20
119.7366996028577
 30
0
 10
66.21034413517661
 20
102.2254792117486
 30
0
 10
66.21034413517661
 20
102.2254792117486
 30
0
 10
66.88579093761314
 20
102.0819086181747
 30
0
 10
67.54973575271674
 20
102.5130793638128
 30
0
 10
67.69330653818794
 20
103.1885261254607
 30
0
 10
67.69330653818794
 20
103.1885261254607
 30
0
 10
71.34202231075189
 20
120.3543669659619
 30
0
 10
71.34202231075189
 20
120.3543669659619
 30
0
 10
71.48559327690563
 20
121.0298145776508
 30
0
 10
71.05442200232744
 20
121.6937603011144
 30
0
 10
70.37897436839079
 20
121.8373311626045
 30
0
 10
70.37897436839079
 20
121.8373311626045
 30
0
 10
62.5294444878846
 20
123.5058006495309
 30
0
 10
62.5294444878846
 20
123.5058006495309
 30
0
 10
62.39451365463436
 20
123.5344810904683
 30
0
 10
62.3083807123171
 20
123.6671142568198
 30
0
 10
62.33706120150578
 20
123.8020450798135
 30
0
 10
62.33706120150578
 20
123.8020450798135
 30
0
 10
65.98588929614039
 20
140.9683972478092
 30
0
 10
65.98588929614039
 20
140.9683972478092
 30
0
 10
66.12946045285631
 20
141.6438450829603
 30
0
 10
65.69828882671366
 20
142.3077910497484
 30
0
 10
65.02284085225043
 20
142.4513615510547
 30
0
 10
65.02284085225043
 20
142.4513615510547
 30
0
 10
57.17809505388333
 20
144.1188091258112
 30
0
 10
57.17809505388333
 20
144.1188091258112
 30
0
 10
57.04054471886938
 20
144.1480462710831
 30
0
 10
56.95273955389495
 20
144.2832542672809
 30
0
 10
56.9819767603009
 20
144.420804589301
 30
0
 10
56.9819767603009
 20
144.420804589301
 30
0
 10
60.62979981780879
 20
161.5824728166917
 30
0
 10
60.62979981780879
 20
161.5824728166917
 30
0
 10
60.77337045242296
 20
162.257919942173
 30
0
 10
60.34219902129522
 20
162.9218649226193
 30
0
 10
59.66675177198206
 20
163.0654349746465
 30
0
 10
59.66675177198206
 20
163.0654349746465
 30
0
 10
56.47123826686207
 20
163.7446590601034
 30
0
 10
56.47123826686207
 20
163.7446590601034
 30
0
 10
56.33876373720334
 20
163.7728172547428
 30
0
 10
56.25419866474063
 20
163.903035837279
 30
0
 10
56.28235692451826
 20
164.0355103530902
 30
0
 10
56.28235692451826
 20
164.0355103530902
 30
0
 10
59.93270040028543
 20
181.2090675372482
 30
0
 10
59.93270040028543
 20
181.2090675372482
 30
0
 10
59.96113205541775
 20
181.3428282801736
 30
0
 10
60.09261496165108
 20
181.4282143857993
 30
0
 10
60.22637570956354
 20
181.3997827541169
 30
0
 10
60.22637570956354
 20
181.3997827541169
 30
0
 10
68.07814897309244
 20
179.7308422843084
 30
0
 10
68.07814897309244
 20
179.7308422843084
 30
0
 10
68.7535848808968
 20
179.5872744196411
 30
0
 10
69.41751868847282
 20
180.018438417066
 30
0
 10
69.56108696301129
 20
180.6938742377485
 30
0
 10
69.56108696301129
 20
180.6938742377485
 30
0
 10
73.20980189096454
 20
197.8597332671274
 30
0
 10
73.20980189096454
 20
197.8597332671274
 30
0
 10
73.35337278539656
 20
198.5351814134527
 30
0
 10
72.92220110190271
 20
199.1991275356572
 30
0
 10
72.24675296310612
 20
199.3426984655007
 30
0
 10
72.24675296310612
 20
199.3426984655007
 30
0
 10
-4.386620514904498
 20
215.6316243731824
 30
0
 10
-4.386620514904498
 20
215.6316243731824
 30
0
 10
-4.386620514904498
 20
215.6316243731824
 30
0
 10
-4.386620514904498
 20
215.9891606890107
 30
0
 10
-4.386620514904498
 20
215.9891606890107
 30
0
 10
-4.386620514904498
 20
216.8175848172158
 30
0
 10
-5.058190960979774
 20
217.4891552632885
 30
0
 10
-5.886615089182277
 20
217.4891552632885
 30
0
 10
-5.886615089182277
 20
217.4891552632885
 30
0
 10
-22.93662949599833
 20
217.4891552632885
 30
0
 10
-22.93662949599833
 20
217.4891552632885
 30
0
 10
-23.76505362420084
 20
217.4891552632885
 30
0
 10
-24.43662407027611
 20
216.8175848171875
 30
0
 10
-24.43662407027611
 20
215.9891606890107
 30
0
 10
-24.43662407027611
 20
215.9891606890107
 30
0
 10
-24.43662407027611
 20
215.9887731157692
 30
0
 10
-24.43662407027611
 20
215.9887731157692
 30
0
 10
-24.43662407027611
 20
215.9887731157692
 30
0
 10
-61.28630316539143
 20
215.9887704916565
 30
0
 10
-61.28630316539143
 20
215.9887704916565
 30
0
 10
-61.97683634269599
 20
215.9887704424828
 30
0
 10
-62.53662406075112
 20
215.428982684565
 30
0
 10
-62.53662406075112
 20
214.7384495072598
 30
0
 10
-62.53662406075112
 20
214.7384495072598
 30
0
 10
-62.53662406075112
 20
197.1876745868057
 30
0
 10
-62.53662406075112
 20
197.1876745868057
 30
0
 10
-62.53662406075112
 20
197.0505009231389
 30
0
 10
-62.6478117953851
 20
196.9392925666887
 30
0
 10
-62.78498545669235
 20
196.9392671276613
 30
0
  0
SPLINE
  5
71
100
AcDbEntity
  8
CASE_LAYER
  6
ByLayer
 62
  256
370
   -1
100
AcDbSpline
210
0
220
0
230
0
 70
   11
 71
    3
 72
   53
 73
   49
 74
    0
 42
1e-007
 43
1e-007
 40
0
 40
0
 40
0
 40
0
 40
1
 40
1
 40
1
 40
2
 40
2
 40
2
 40
3
 40
3
 40
3
 40
4
 40
4
 40
4
 40
5
 40
5
 40
5
 40
6
 40
6
 40
6
 40
7
 40
7
 40
7
 40
8
 40
8
 40
8
 40
9
 40
9
 40
9
 40
10
 40
10
 40
10
 40
11
 40
11
 40
11
 40
12
 40
12
 40
12
 40
13
 40
13
 40
13
 40
14
 40
14
 40
14
 40
15
 40
15
 40
15
 40
16
 40
16
 40
16
 40
16
 10
263.6483323871084
 20
114.9762695806383
 30
0
 10
264.4767565153106
 20
114.9762695806383
 30
0
 10
265.1483269613861
 20
115.6478400267139
 30
0
 10
265.1483269613861
 20
116.476264154916
 30
0
 10
265.1483269613861
 20
116.476264154916
 30
0
 10
265.1483269613861
 20
133.5262785617321
 30
0
 10
265.1483269613861
 20
133.5262785617321
 30
0
 10
265.1483269613861
 20
134.3547026899346
 30
0
 10
264.4767565153106
 20
135.0262731360099
 30
0
 10
263.6483323871084
 20
135.0262731360099
 30
0
 10
263.6483323871084
 20
135.0262731360099
 30
0
 10
246.3436788841679
 20
135.0262731360099
 30
0
 10
246.3436788841679
 20
135.0262731360099
 30
0
 10
246.2081747615038
 20
135.0262731360099
 30
0
 10
246.0983269661486
 20
135.1361209313653
 30
0
 10
246.0983269661486
 20
135.2716250540292
 30
0
 10
246.0983269661486
 20
135.2716250540292
 30
0
 10
246.0983269661486
 20
152.5762785569696
 30
0
 10
246.0983269661486
 20
152.5762785569696
 30
0
 10
246.0983269661486
 20
153.4047026851711
 30
0
 10
245.426756520073
 20
154.0762731312474
 30
0
 10
244.5983323918709
 20
154.0762731312474
 30
0
 10
244.5983323918709
 20
154.0762731312474
 30
0
 10
227.5483179850548
 20
154.0762731312474
 30
0
 10
227.5483179850548
 20
154.0762731312474
 30
0
 10
226.7198938568513
 20
154.0762731312474
 30
0
 10
226.048323410777
 20
153.4047026851711
 30
0
 10
226.048323410777
 20
152.5762785569696
 30
0
 10
226.048323410777
 20
152.5762785569696
 30
0
 10
226.048323410777
 20
135.2738779081912
 30
0
 10
226.048323410777
 20
135.2738779081912
 30
0
 10
226.048323410777
 20
135.1371295685302
 30
0
 10
225.9374669782564
 20
135.0262731360099
 30
0
 10
225.8007186385954
 20
135.0262731360099
 30
0
 10
225.8007186385954
 20
135.0262731360099
 30
0
 10
208.4983179898173
 20
135.0262731360099
 30
0
 10
208.4983179898173
 20
135.0262731360099
 30
0
 10
207.6698938616138
 20
135.0262731360099
 30
0
 10
206.9983234155395
 20
134.3547026899346
 30
0
 10
206.9983234155395
 20
133.5262785617321
 30
0
 10
206.9983234155395
 20
133.5262785617321
 30
0
 10
206.9983234155395
 20
116.476264154916
 30
0
 10
206.9983234155395
 20
116.476264154916
 30
0
 10
206.9983234155395
 20
115.6478400267139
 30
0
 10
207.6698938616138
 20
114.9762695806383
 30
0
 10
208.4983179898173
 20
114.9762695806383
 30
0
 10
208.4983179898173
 20
114.9762695806383
 30
0
 10
263.6483323871084
 20
114.9762695806383
 30
0
 10
263.6483323871084
 20
114.9762695806383
 30
0
  0
ENDSEC
  0
SECTION
  2
OBJECTS
  0
DICTIONARY
  5
C
330
0
100
AcDbDictionary
281
    1
  3
ACAD_GROUP
350
D
  0
DICTIONARY
  5
D
330
C
100
AcDbDictionary
281
    1
  0
PLOTSETTINGS
  5
72
100
AcDbPlotSettings
  6
1x1
 40
0
 41
0
 42
0
 43
0
  0
ENDSEC
  0
EOF
